<svg width="500" height="518" viewBox="0 0 500 518" fill="none" xmlns="http://www.w3.org/2000/svg">
<path d="M315.995 92.4409H315.922V92.6134H315.995V92.4409Z" fill="#076EFF"/>
<path d="M432.242 76.8995H385.595V123.547H432.242V76.8995Z" fill="#076EFF"/>
<path d="M500 122.409H453.352V169.056H500V122.409Z" fill="#076EFF"/>
<path d="M463.964 375.445H417.316V422.093H463.964V375.445Z" fill="#076EFF"/>
<path d="M430.959 284.777H384.311V331.424H430.959V284.777Z" fill="#076EFF"/>
<path d="M386.192 346.233H339.544V392.881H386.192V346.233Z" fill="#076EFF"/>
<path d="M373.863 43.3123H327.216V89.96H373.863V43.3123Z" fill="#076EFF"/>
<path d="M435.129 177.988H388.481V224.636H435.129V177.988Z" fill="#076EFF"/>
<path d="M379.277 222.691H332.629V269.339H379.277V222.691Z" fill="#076EFF"/>
<path d="M329.533 325.934V279.259L282.84 279.296V325.934H329.533Z" fill="#076EFF"/>
<path d="M385.836 503.78C377.516 476.163 371.656 447.865 368.324 419.216H315.822V372.591H269.183V325.943H222.535V279.295H269.183V232.229H315.872V185.795H362.501V139.138L315.922 139.088V92.6228L269.151 92.5955V45.9388L315.854 45.8249V12.7614C293.555 5.5469 270.386 1.36676 246.972 0.33357C132.577 -5.58445 34.6064 67.8901 37.7611 169.225C38.1754 182.6 40.5153 202.297 40.4607 215.167C40.356 260.881 0.800806 279.66 0.0405681 294.209C-1.21132 318.099 26.8538 310.638 36.7505 344.435C49.3149 387.34 31.2877 436.269 89.776 433.246C113.107 432.308 151.023 423.254 167.27 438.363C177.631 447.995 185.976 490.041 189.231 508.646C189.67 511.147 190.978 513.412 192.925 515.043C194.871 516.673 197.33 517.565 199.869 517.56H375.448C377.122 517.564 378.775 517.178 380.275 516.433C381.774 515.688 383.08 514.604 384.088 513.267C385.096 511.93 385.779 510.377 386.082 508.73C386.386 507.083 386.301 505.388 385.836 503.78ZM178.933 139.284H132.286V92.6228H178.933V139.284ZM225.549 110.459H272.197V157.107H225.549V110.459ZM190.646 220.088V173.436H237.294V220.088H190.646ZM249.44 430.255H202.792V383.598H249.44V430.255Z" fill="#076EFF"/>
</svg>
