<svg width="100" height="179" viewBox="0 0 100 179" fill="none" xmlns="http://www.w3.org/2000/svg">
<g clip-path="url(#clip0_42_115)">
<path d="M46.6439 0.273806C41.5891 1.3149 37.2466 4.54778 34.8768 9.02723C29.7261 18.8081 34.9589 30.767 45.6576 33.63C50.8357 35.0272 56.5069 33.8081 60.7398 30.4108C67.1096 25.2875 68.9452 16.3012 65.1233 9.02723C62.6987 4.45189 58.1918 1.16422 53.0274 0.205312C51.4247 -0.0823587 48.2466 -0.0549615 46.6439 0.273806Z" fill="#076EFF"/>
<path d="M29.5206 25.1777C22.5069 28.2188 14.6028 34.9448 9.35618 42.3558C4.43837 49.301 1.36988 57.3421 0.34248 66.0955C0.0411106 68.6298 -0.0684784 73.7257 0.123302 76.3695C0.465768 80.9448 1.1507 85.0407 1.80823 86.4106C2.95892 88.849 6.1096 90.5613 9.04111 90.3695C10.4384 90.2736 11.4795 89.8627 12.3973 89.027C13.411 88.0818 13.863 87.1229 13.9452 85.6709C14.0137 84.4654 13.9315 84.1229 13.0822 81.9174C12.0274 79.164 11.1918 75.712 10.726 72.2188C10.411 69.7805 10.411 64.2873 10.7397 61.849C11.4247 56.8079 12.9315 51.8627 15.0274 47.7668C15.3699 47.1092 15.6849 46.5887 15.7123 46.6298C15.7397 46.6572 15.5891 47.2599 15.3699 47.9722C12.5617 56.712 12.3151 66.2051 14.6439 75.2462C18.5206 90.2325 29.2466 101.657 42.4658 104.835C45.3014 105.52 46.6986 105.685 50 105.685C53.3014 105.685 54.6986 105.52 57.5343 104.835C65.6576 102.876 72.9452 97.8079 78.3562 90.3421C86.7945 78.6709 89.2192 62.3147 84.6302 47.9722C84.411 47.2599 84.2603 46.6572 84.2877 46.6298C84.3151 46.5887 84.6302 47.1092 84.9726 47.7668C87.0685 51.8627 88.5754 56.8079 89.2603 61.849C89.5891 64.2873 89.5891 69.7805 89.274 72.2188C88.8082 75.712 87.9726 79.164 86.9178 81.9174C86.0685 84.1229 85.9863 84.4654 86.0548 85.6709C86.137 87.1229 86.5891 88.0818 87.6028 89.027C88.5206 89.8627 89.5617 90.2736 90.9589 90.3695C93.8904 90.5613 97.0411 88.849 98.1918 86.4106C99.2603 84.1914 100.11 76.7942 99.9589 71.027C99.863 67.5887 99.6439 65.3147 99.1096 62.4654C97.3014 52.8901 93.3699 44.9722 86.7671 37.5476C81.7945 31.9448 74.9726 26.8764 69.6302 24.8079L68.9178 24.5339L68.1644 25.9722C67.1096 27.9859 66.0548 29.4243 64.3836 31.0955C61.5206 33.9585 58.0685 35.8216 54.0274 36.6572C52.5206 36.9722 51.9178 37.027 50 37.027C48.0822 37.027 47.4795 36.9722 45.9726 36.6572C39.6712 35.3558 34.548 31.3969 31.6576 25.6435C31.3425 25.027 31.0822 24.5202 31.0548 24.5202C31.0411 24.5202 30.3562 24.8216 29.5206 25.1777Z" fill="#076EFF"/>
<path d="M22.4658 97.0273C22.4658 97.1917 24 108.082 25.8904 121.233C28.3151 138.164 29.3973 145.383 29.6027 145.959C30.0411 147.205 30.726 148.233 31.726 149.164C34.2603 151.548 37.9315 152.055 41.0137 150.452C42.3288 149.767 43.9041 148.192 44.4795 146.986C45.3973 145.096 45.3425 146.274 45.3425 126.26V108.11L44.2877 107.959C40.1233 107.342 35.0137 105.589 31.411 103.534C28.589 101.931 25.726 99.8218 23.5753 97.767C22.6575 96.904 22.4658 96.767 22.4658 97.0273Z" fill="#076EFF"/>
<path d="M76.5754 97.6437C74.5343 99.6163 71.3699 101.945 68.5891 103.534C64.9863 105.589 59.8767 107.342 55.726 107.959L54.6575 108.109V126.26C54.6575 146.274 54.6028 145.096 55.5206 146.986C56.0959 148.192 57.6712 149.767 58.9863 150.452C63.3151 152.685 68.6301 150.657 70.3425 146.109C70.6028 145.438 71.3836 140.192 74.1096 121.233C76 108.027 77.5343 97.1232 77.5069 96.9999C77.4795 96.8492 77.2192 97.0273 76.5754 97.6437Z" fill="#076EFF"/>
<path d="M32.1096 154.329C30 154.685 29.685 154.863 27.6302 156.959C21.7809 162.931 17.6987 168.164 17.3151 170.205C17.2603 170.548 17.3014 170.781 17.4521 171.027L17.6713 171.37L50.0274 171.342L82.3836 171.301L82.5891 170.931C82.7809 170.603 82.7672 170.493 82.5617 169.835C81.8631 167.589 77.9315 162.63 72.3699 156.959C70.2877 154.835 70.0137 154.685 67.7672 154.315C65.9863 154.027 33.8357 154.027 32.1096 154.329ZM49.3973 165.096C49.6576 165.835 49.8631 166.233 50 166.233C50.137 166.233 50.3425 165.835 50.6028 165.096L50.9863 163.972H53.7261H56.4521L59.6302 165.287C63.5206 166.904 63.3699 166.822 63.137 167.055C62.7124 167.466 58.7398 168.068 54.548 168.356C49.3562 168.698 42.5069 168.356 38.4521 167.52C37.0685 167.246 36.6028 167.041 36.8083 166.835C36.8767 166.767 38.411 166.096 40.2055 165.342L43.4932 163.986L46.2466 163.972H49.0137L49.3973 165.096Z" fill="#076EFF"/>
<path d="M16.9863 173.931C16.5205 174.096 16.4384 174.424 16.4384 176.178C16.4384 177.589 16.4795 177.972 16.6575 178.137C16.8493 178.329 20.0685 178.356 50 178.356C79.9315 178.356 83.1507 178.329 83.3425 178.137C83.6438 177.849 83.6575 174.575 83.3699 174.164C83.1781 173.904 82.6712 173.904 50.1781 173.877C32.0411 173.863 17.0959 173.89 16.9863 173.931Z" fill="#076EFF"/>
</g>
<defs>
<clipPath id="clip0_42_115">
<rect width="100" height="178.356" fill="white"/>
</clipPath>
</defs>
</svg>
