<svg width="90" height="85" viewBox="0 0 90 85" fill="none" xmlns="http://www.w3.org/2000/svg">
<path d="M74.4241 2.72737e-07C73.9278 0.000330294 73.4447 0.159409 73.0453 0.454041C72.6459 0.748672 72.3513 1.16336 72.2045 1.63745L67.9132 14.8155L58.5469 18.0197C59.147 16.6438 59.486 15.1736 59.486 13.6594C59.486 6.92296 53 5.37653 45.0002 5.37653C37.0003 5.37653 30.5153 6.92296 30.5153 13.6594C30.5153 15.1736 30.8546 16.6438 31.4543 18.0197L22.0871 14.8155L17.7968 1.63745C17.6463 1.15193 17.3408 0.729124 16.9271 0.433716C16.5135 0.138308 16.0144 -0.0134302 15.5063 0.00177029C15.1425 0.012583 14.7862 0.108674 14.4663 0.282288C14.1464 0.455902 13.8717 0.702245 13.6643 1.0014C13.457 1.30056 13.3227 1.64419 13.2724 2.0047C13.2222 2.36521 13.2572 2.73247 13.3748 3.07697L18.0248 17.3585C18.1364 17.7014 18.3263 18.0138 18.5794 18.2707C18.8326 18.5276 19.142 18.7221 19.4833 18.8389L29.1048 22.1302C25.845 23.1626 22.433 24.8528 19.1091 27.0453C12.0597 31.6954 5.37457 38.5388 2.36643 46.5037C-0.491008 54.0695 -0.689768 59.9873 1.38739 64.5404C3.46454 69.0936 7.60326 71.7845 12.0706 73.4717C16.5379 75.1589 21.4212 75.8756 25.9897 73.8324C28.1235 72.878 30.079 71.3637 31.8512 69.2587C33.3499 73.8593 35.324 77.6085 37.6103 80.1968C39.8966 82.785 42.4296 84.1381 45.0002 84.144C47.5699 84.1351 50.1018 82.7801 52.387 80.1908C54.6722 77.6015 56.645 73.8521 58.1428 69.2522C59.9162 71.3607 61.8737 72.877 64.0098 73.8324C68.5782 75.8756 73.4625 75.1589 77.9298 73.4717C82.3971 71.7845 86.5358 69.0936 88.613 64.5404C90.6901 59.9873 90.4905 54.0695 87.633 46.5037C84.6249 38.5388 77.9406 31.6954 70.8912 27.0453C67.5673 24.8528 64.1553 23.1626 60.8955 22.1302L70.518 18.8389C70.8591 18.722 71.1683 18.5274 71.4213 18.2705C71.6743 18.0136 71.8641 17.7013 71.9756 17.3585L76.6256 3.07697C76.7452 2.72684 76.7796 2.35325 76.7258 1.98718C76.672 1.62111 76.5316 1.27314 76.3163 0.972229C76.101 0.671316 75.817 0.426117 75.4879 0.257019C75.1588 0.0879221 74.7941 -0.000178898 74.4241 2.72737e-07ZM35.6848 26.4868C36.4019 26.5091 36.997 26.6137 37.4376 26.7802C38.6126 27.2239 39.0423 27.8031 39.3766 29.4548C39.7109 31.1066 39.5759 33.6913 38.9697 36.7186C37.7574 42.7732 34.8154 50.5545 32.1037 57.7344C29.5428 64.5152 26.6048 67.6141 23.7746 68.8799C20.9444 70.1456 17.732 69.81 13.9878 68.3959C10.2435 66.9817 7.61027 65.1098 6.32346 62.2891C5.03666 59.4685 4.8814 55.2016 7.44237 48.4208C9.85263 42.039 15.8075 35.722 22.0962 31.5737C25.2406 29.4995 28.4578 27.9604 31.2246 27.148C32.608 26.7418 33.8678 26.5389 34.9282 26.4932C35.1933 26.482 35.4457 26.4798 35.6848 26.4868ZM54.3156 26.4868C54.5547 26.4798 54.807 26.4818 55.0722 26.4938C56.1326 26.5394 57.3924 26.7424 58.7758 27.1486C61.5426 27.961 64.7598 29.5001 67.9041 31.5743C74.1929 35.7226 80.1477 42.0396 82.558 48.4214C85.119 55.2022 84.9637 59.469 83.6769 62.2897C82.3901 65.1104 79.7568 66.9824 76.0126 68.3965C72.2683 69.8106 69.055 70.1463 66.2249 68.8805C63.3947 67.6147 60.4576 64.5159 57.8967 57.735C55.185 50.5552 52.2429 42.7738 51.0306 36.7192C50.4245 33.692 50.2895 31.1072 50.6238 29.4554C50.9581 27.8037 51.3878 27.2246 52.5628 26.7808C53.0034 26.6144 53.5984 26.5091 54.3156 26.4868Z" fill="#076EFF"/>
</svg>
