<svg width="28" height="8" viewBox="0 0 28 8" fill="none" xmlns="http://www.w3.org/2000/svg">
<path d="M12.386 7.85999C11.791 7.80299 11.205 7.74099 10.663 7.64999C10.559 7.63299 10.459 7.61299 10.368 7.58799C10.327 7.57899 10.313 7.56099 10.288 7.54599C10.336 7.53899 10.383 7.52699 10.432 7.52699C10.629 7.52499 10.827 7.52599 11.024 7.52599C11.567 7.52899 12.112 7.53999 12.655 7.53399C13.077 7.52899 13.497 7.50399 13.917 7.48699C13.961 7.48499 14.007 7.48099 14.045 7.47399C14.076 7.46699 14.118 7.45699 14.118 7.44999C14.118 7.44099 14.076 7.42899 14.043 7.42599C13.896 7.41199 13.746 7.39899 13.595 7.38799C12.712 7.33199 11.835 7.26999 10.991 7.17299C10.012 7.06099 9.106 6.91399 8.279 6.72699C7.611 6.57599 7.018 6.40599 6.536 6.20399C6.412 6.15199 6.293 6.09999 6.247 6.03699C6.258 6.03299 6.268 6.02899 6.278 6.02699C6.345 6.03599 6.418 6.04499 6.477 6.05599C6.861 6.13899 7.238 6.22499 7.626 6.30699C8.547 6.49999 9.552 6.64799 10.647 6.74299C11.467 6.81399 12.305 6.85299 13.163 6.84699C13.43 6.84699 13.696 6.83199 13.962 6.82299C14.018 6.82099 14.072 6.80999 14.127 6.80399C14.129 6.79899 14.13 6.79499 14.134 6.79099C14.069 6.78399 14.007 6.77399 13.941 6.76899C13.441 6.73499 12.936 6.70499 12.44 6.66499C11.413 6.58299 10.462 6.45399 9.594 6.27499C8.555 6.06199 7.72 5.79699 7.106 5.47799C6.669 5.24999 6.357 5.00999 6.251 4.75099C6.21 4.65299 6.223 4.55499 6.215 4.45699C6.214 4.44499 6.239 4.43099 6.253 4.41699C6.271 4.41599 6.289 4.41599 6.307 4.41499C6.368 4.46199 6.437 4.50899 6.49 4.55699C6.836 4.87699 7.331 5.17699 8.084 5.43699C9.142 5.80199 10.472 6.04499 12.096 6.14799C12.695 6.18499 13.308 6.20399 13.922 6.16799C13.992 6.16399 14.059 6.15499 14.128 6.14999C14.129 6.14299 14.129 6.13799 14.129 6.13199C13.983 6.12099 13.839 6.10799 13.692 6.09799C12.832 6.04599 12.004 5.96899 11.247 5.83799C9.738 5.57699 8.721 5.20799 8.289 4.71799C7.943 4.32199 8.048 3.93699 8.719 3.57099C8.815 3.51799 8.917 3.46499 9.096 3.42999C9.112 3.43199 9.129 3.43299 9.146 3.43499C9.128 3.46399 9.117 3.49499 9.092 3.52399C8.916 3.72399 8.804 3.92499 8.839 4.13299C8.898 4.47699 9.297 4.78499 10.076 5.04999C10.673 5.25299 11.419 5.39699 12.307 5.47599C12.839 5.52199 13.386 5.54099 13.943 5.51399C14.005 5.51099 14.065 5.50099 14.131 5.48399C14.078 5.47699 14.026 5.46699 13.969 5.46299C13.532 5.41799 13.074 5.38799 12.66 5.32899C11.358 5.14999 10.536 4.85499 10.289 4.44699C10.044 4.03999 10.6 3.62099 11.795 3.39899C11.941 3.37099 12.109 3.35299 12.272 3.33299C12.331 3.32599 12.403 3.32799 12.47 3.32599C12.479 3.32999 12.487 3.33399 12.495 3.33799C12.435 3.35999 12.38 3.38299 12.314 3.40299C11.861 3.53899 11.504 3.69099 11.327 3.87399C10.977 4.23599 11.52 4.62999 12.616 4.79899C13.011 4.85999 13.431 4.89399 13.887 4.86999C13.971 4.86499 14.05 4.85299 14.131 4.84499C14.133 4.83999 14.133 4.83399 14.135 4.82799C14.054 4.81599 13.977 4.80199 13.892 4.79199C13.522 4.74699 13.182 4.69199 12.91 4.60599C12.308 4.41499 12.224 4.12699 12.834 3.92899C13.117 3.83699 13.654 3.78199 14.013 3.81499C14.051 3.81799 14.09 3.82199 14.124 3.82799C14.239 3.84799 14.241 3.86799 14.134 3.89099C14.007 3.91999 13.865 3.94399 13.754 3.97699C13.567 4.03299 13.488 4.09899 13.577 4.17599C13.584 4.18299 13.596 4.18999 13.607 4.19599C13.678 4.23399 13.787 4.25799 13.934 4.25599C14.094 4.25399 14.119 4.21499 14.137 4.17699H14.136C14.033 4.18799 13.947 4.18099 13.89 4.15299C13.827 4.12399 13.86 4.09499 13.923 4.06899C14.039 4.01899 14.295 4.00099 14.526 4.02099C14.771 4.04199 14.92 4.09299 15.063 4.14899C15.115 4.16899 15.198 4.18299 15.266 4.19899C15.314 4.17599 15.39 4.15399 15.405 4.12799C15.493 3.97499 15.254 3.85899 14.837 3.77399C14.238 3.65099 13.361 3.66799 12.783 3.79999C12.414 3.88499 12.184 3.99399 12.008 4.11599C11.973 4.13999 11.906 4.15999 11.855 4.18099C11.813 4.15799 11.746 4.13399 11.731 4.10899C11.662 3.98399 11.759 3.86599 11.966 3.75699C12.421 3.51699 13.137 3.38499 14.084 3.35399C15.012 3.32299 15.805 3.41299 16.509 3.57899C16.638 3.60999 16.756 3.64399 16.883 3.67499C16.935 3.68799 16.995 3.69699 17.051 3.70899C17.068 3.70699 17.084 3.70499 17.1 3.70299C17.079 3.67499 17.074 3.64599 17.038 3.61999C16.861 3.49199 16.562 3.38899 16.195 3.30099C15.513 3.13899 14.716 3.06399 13.839 3.06299C12.972 3.06299 12.187 3.13899 11.487 3.28599C10.562 3.47999 10.038 3.74699 9.757 4.05899C9.723 4.09699 9.679 4.13399 9.637 4.17099C9.631 4.17599 9.613 4.17999 9.586 4.18799C9.462 4.14599 9.463 4.09699 9.458 4.05299C9.417 3.73899 9.77 3.46199 10.441 3.21699C11.1 2.97599 11.952 2.81399 12.975 2.72499C13.662 2.66499 14.367 2.64299 15.079 2.66599C15.57 2.68299 16.055 2.71499 16.543 2.73999C16.596 2.74299 16.649 2.74399 16.703 2.74599C16.713 2.74299 16.722 2.73899 16.731 2.73499C16.684 2.71999 16.645 2.70299 16.59 2.69099C16.166 2.59799 15.681 2.53799 15.166 2.50299C13.188 2.36499 11.41 2.49199 9.844 2.85699C8.589 3.14899 7.88 3.53799 7.529 3.98399C7.476 4.05099 7.418 4.11699 7.352 4.19499C7.202 4.15099 7.209 4.10599 7.197 4.06499C7.088 3.71599 7.386 3.39099 7.95 3.08499C8.82 2.61199 10.158 2.28499 11.88 2.08399C12.263 2.03899 12.658 2.00299 13.047 1.96199C13.133 1.95299 13.216 1.94099 13.301 1.92899C13.299 1.92399 13.298 1.91799 13.296 1.91299C13.207 1.90899 13.116 1.90199 13.026 1.90099C12.173 1.88899 11.365 1.94599 10.58 2.03299C9.64 2.13699 8.8 2.28999 8.06 2.48599C6.755 2.83199 5.913 3.25699 5.46 3.74599C5.342 3.87299 5.254 4.00199 5.149 4.12999C5.132 4.14999 5.1 4.16799 5.075 4.18699C5.054 4.18699 5.033 4.18699 5.012 4.18699C4.977 4.14499 4.927 4.10399 4.91 4.06099C4.805 3.77899 4.929 3.50199 5.192 3.22899C5.554 2.85399 6.185 2.51999 7.006 2.21199C7.205 2.13699 7.408 2.06299 7.606 1.98799C7.653 1.96999 7.684 1.94899 7.722 1.92899C7.714 1.92499 7.706 1.92099 7.698 1.91699C7.631 1.92199 7.554 1.92299 7.5 1.93399C7.15 2.00299 6.781 2.06499 6.462 2.14399C5.242 2.44699 4.39 2.82599 3.781 3.24999C3.412 3.50699 3.182 3.77599 2.981 4.04699C2.954 4.08299 2.914 4.11899 2.87 4.15499C2.855 4.16599 2.808 4.17399 2.776 4.18399C2.747 4.17499 2.7 4.16599 2.692 4.15499C2.631 4.07899 2.545 4.00099 2.531 3.92399C2.499 3.74699 2.5 3.56999 2.496 3.39399C2.495 3.31599 2.515 3.23699 2.524 3.15899C2.525 3.14899 2.534 3.13799 2.522 3.12899C2.499 3.11199 2.463 3.09699 2.433 3.08099C2.384 3.08899 2.314 3.09399 2.287 3.10699C2.117 3.18799 1.915 3.26799 1.798 3.35499C1.52 3.56399 1.206 3.71899 1.027 3.98799C0.520999 4.75199 1.194 5.42999 2.176 5.95999C4.404 7.16499 8.821 7.98999 13.916 8.00599C13.873 7.99999 13.826 7.99499 13.779 7.98999C13.318 7.94499 12.851 7.90399 12.386 7.85999Z" fill="#076EFF"/>
<path d="M15.205 0.447994C15.986 0.518994 16.768 0.588994 17.489 0.701994C17.631 0.723994 17.763 0.751994 17.891 0.779994C17.928 0.787994 17.965 0.807995 17.953 0.818995C17.941 0.828995 17.868 0.839994 17.82 0.839994C17.455 0.839994 17.09 0.838994 16.724 0.834994C15.947 0.826994 15.169 0.822994 14.406 0.874994C14.304 0.881994 14.211 0.896994 14.089 0.911994C14.23 0.956994 14.392 0.960994 14.539 0.970994C15.414 1.02999 16.29 1.08799 17.131 1.17999C18.656 1.34899 20.007 1.59399 21.1 1.94399C21.404 2.04099 21.649 2.15399 21.913 2.26199C21.962 2.28199 21.979 2.30799 22.01 2.33099C21.999 2.33499 21.987 2.33799 21.975 2.34199C21.912 2.33299 21.842 2.32599 21.786 2.31399C21.387 2.22799 20.997 2.13699 20.59 2.05299C19.357 1.80099 18.01 1.61999 16.498 1.55499C16.009 1.53399 15.511 1.52599 15.015 1.52099C14.776 1.51899 14.533 1.53499 14.292 1.54499C14.232 1.54699 14.177 1.55799 14.12 1.56499C14.119 1.56999 14.118 1.57399 14.118 1.57899C14.214 1.58799 14.31 1.59799 14.408 1.60499C15.066 1.65399 15.737 1.69499 16.384 1.75499C17.348 1.84499 18.222 1.98599 19.019 2.16799C19.834 2.35299 20.503 2.57399 21.033 2.82999C21.512 3.06099 21.839 3.30899 21.99 3.57399C22.045 3.66999 22.044 3.76999 22.058 3.86799C22.062 3.89399 22.029 3.92099 22.012 3.94799C21.991 3.94899 21.969 3.94999 21.947 3.95099C21.884 3.90099 21.812 3.85199 21.757 3.80099C21.404 3.47899 20.906 3.17899 20.142 2.91899C19.082 2.55799 17.76 2.31699 16.142 2.21699C15.545 2.17999 14.939 2.16199 14.33 2.19699C14.26 2.20099 14.191 2.20899 14.123 2.21499C14.121 2.22099 14.12 2.22599 14.12 2.23099C14.261 2.24299 14.398 2.25799 14.542 2.26599C15.787 2.33799 16.931 2.47299 17.907 2.70899C18.921 2.95399 19.617 3.25999 19.949 3.62799C20.272 3.98699 20.227 4.34099 19.713 4.68599C19.612 4.75399 19.474 4.81699 19.343 4.87899C19.3 4.90099 19.227 4.91599 19.166 4.93499C19.148 4.93299 19.131 4.92999 19.113 4.92799C19.136 4.89199 19.153 4.85399 19.183 4.81799C19.342 4.62999 19.453 4.44199 19.42 4.24799C19.347 3.79799 18.744 3.42099 17.526 3.13199C16.854 2.97099 16.074 2.87399 15.203 2.84499C14.91 2.83599 14.608 2.84699 14.311 2.85199C14.246 2.85199 14.184 2.86399 14.12 2.86999C14.119 2.87499 14.119 2.87999 14.119 2.88599C14.243 2.89799 14.366 2.91199 14.493 2.92099C15.23 2.97599 15.92 3.05899 16.507 3.20099C17.32 3.39699 17.831 3.64299 17.975 3.94699C18.102 4.21199 17.936 4.45999 17.431 4.68599C17.097 4.83499 16.664 4.95599 16.079 5.02399C15.989 5.03399 15.889 5.03699 15.794 5.04399C15.785 5.03999 15.776 5.03599 15.768 5.03199C15.794 5.01999 15.817 5.00699 15.848 4.99499C16.11 4.89599 16.425 4.80599 16.628 4.69799C17.217 4.38499 17.199 4.06899 16.464 3.77399C16.051 3.60799 15.471 3.51099 14.753 3.49199C14.591 3.48799 14.422 3.49799 14.258 3.50599C14.21 3.50699 14.166 3.51899 14.075 3.53299C14.199 3.55199 14.283 3.56599 14.372 3.57699C14.877 3.63599 15.309 3.71999 15.591 3.85799C15.972 4.04399 15.924 4.27099 15.426 4.43199C15.118 4.53299 14.724 4.58199 14.241 4.54999C14.203 4.54799 14.162 4.54299 14.131 4.53799C14.022 4.51699 14.02 4.49999 14.122 4.47699C14.229 4.45299 14.346 4.43099 14.447 4.40599C14.635 4.35699 14.737 4.29799 14.707 4.22299C14.686 4.17299 14.605 4.13299 14.428 4.11499C14.25 4.09699 14.127 4.12499 14.14 4.18099C14.238 4.19199 14.366 4.19199 14.377 4.23599C14.389 4.28199 14.309 4.31199 14.173 4.33299C13.895 4.37499 13.53 4.34199 13.297 4.25399C13.239 4.23199 13.191 4.20799 13.133 4.18499C13.033 4.14599 12.945 4.14899 12.881 4.19399C12.797 4.25299 12.804 4.31199 12.863 4.37299C13.015 4.52999 13.565 4.65499 14.134 4.67299C15.097 4.70399 15.832 4.52199 16.146 4.31699C16.213 4.27299 16.29 4.22999 16.373 4.17899C16.519 4.21499 16.531 4.25599 16.537 4.29699C16.583 4.57799 15.922 4.83899 15.012 4.94999C13.941 5.07999 12.932 5.02999 11.996 4.84299C11.773 4.79899 11.578 4.74199 11.37 4.69199C11.313 4.67799 11.254 4.66599 11.196 4.65199C11.18 4.65399 11.165 4.65599 11.149 4.65699C11.161 4.67899 11.161 4.70299 11.187 4.72499C11.343 4.85699 11.642 4.96299 12.004 5.05299C12.568 5.19499 13.236 5.27499 13.978 5.29799C15.073 5.33199 16.055 5.24399 16.914 5.04899C17.748 4.85999 18.228 4.60699 18.495 4.31599C18.536 4.27199 18.589 4.22999 18.643 4.17799C18.789 4.22199 18.789 4.26899 18.794 4.31299C18.843 4.63999 18.46 4.92399 17.748 5.17399C17.1 5.40299 16.269 5.55799 15.281 5.64299C14.381 5.72099 13.469 5.72999 12.548 5.67699C12.27 5.66099 11.996 5.64299 11.719 5.62499C11.661 5.62099 11.6 5.62099 11.512 5.62899C11.557 5.64499 11.595 5.66199 11.647 5.67299C12.196 5.79199 12.83 5.85499 13.497 5.89099C14.002 5.91799 14.512 5.92499 15.027 5.91199C16.026 5.88699 16.945 5.79799 17.785 5.64299C18.836 5.44999 19.611 5.18799 20.151 4.86699C20.486 4.66799 20.671 4.45599 20.844 4.24199C20.861 4.22199 20.894 4.20399 20.933 4.17399C21.068 4.24699 21.079 4.31599 21.081 4.38299C21.099 4.76899 20.705 5.12099 19.977 5.44299C18.979 5.88399 17.559 6.17199 15.836 6.34299C15.598 6.36599 15.357 6.38899 15.119 6.41199C15.057 6.41899 14.999 6.43099 14.939 6.43799C14.939 6.44299 14.94 6.44799 14.941 6.45299C15.019 6.45799 15.097 6.46399 15.176 6.46499C16.446 6.47999 17.603 6.36999 18.689 6.19399C20.298 5.93299 21.455 5.55099 22.23 5.07599C22.622 4.83499 22.861 4.57999 23.041 4.32099C23.074 4.27399 23.128 4.22799 23.172 4.18199C23.193 4.18299 23.216 4.18299 23.238 4.18299C23.272 4.22099 23.324 4.25899 23.339 4.29699C23.396 4.45399 23.386 4.60899 23.319 4.76599C23.208 5.03199 22.942 5.28699 22.565 5.52999C22.155 5.79599 21.596 6.03499 20.966 6.25999C20.836 6.30699 20.714 6.35499 20.592 6.40299C20.562 6.41399 20.547 6.42999 20.504 6.45799C20.617 6.44799 20.697 6.446 20.753 6.436C21.099 6.368 21.466 6.30699 21.778 6.22799C23.445 5.80599 24.438 5.26999 24.991 4.66299C25.111 4.52999 25.213 4.39699 25.329 4.26399C25.353 4.23599 25.404 4.20899 25.443 4.18299C25.464 4.18299 25.487 4.18299 25.507 4.18299C25.548 4.21299 25.604 4.24099 25.626 4.27199C25.769 4.46599 25.801 4.66199 25.767 4.85899C25.745 4.98199 25.737 5.10599 25.723 5.22899C25.721 5.23699 25.722 5.24599 25.728 5.25499C25.758 5.29499 25.842 5.30499 25.936 5.27399C26.041 5.23899 26.128 5.19499 26.209 5.16099C26.616 4.98999 26.975 4.85999 27.367 4.49399C27.463 4.40599 27.476 4.24299 27.493 4.17599C27.493 2.07599 21.574 0.370994 14.237 0.343994C14.265 0.349994 14.299 0.355994 14.338 0.359994C14.623 0.390994 14.912 0.421994 15.205 0.447994Z" fill="#076EFF"/>
</svg>
