<svg width="177" height="146" viewBox="0 0 177 146" fill="none" xmlns="http://www.w3.org/2000/svg">
<path fill-rule="evenodd" clip-rule="evenodd" d="M67 106C73 112 88 119 94 124C100 130 116 144 120 145C125 146 129 142 131 141C134 140 137 142 137 138C138 135 137 134 130 130C124 126 110 124 102 107C102 107 99 90 94 85C89 80 89 78 84 75C78 71 72 68 70 67C62 64 61 65 59 58C59 58 57 57 52 61C48 65 44 66 47 69C50 73 56 72 59 77C63 82 62 99 67 106Z" fill="#076EFF"/>
<path fill-rule="evenodd" clip-rule="evenodd" d="M105 79C105 79 107 85 111 86C129 88 126 106 150 111C154 112 163 114 165 114C172 117 171 115 174 107C174 107 179 105 176 100C174 95 167 85 162 81C157 76 145 67 144 66C143 65 122 45 122 45C122 45 119 37 116 35C113 32 105 32 100 30C96 29 89 26 84 27C79 28 72 37 68 40C63 42 61 43 61 44C61 45 71 48 71 48C71 48 68 55 66 57C64 58 62 59 62 60C62 60 86 72 89 76C92 80 92 81 94 81C95 81 99 76 105 79ZM105 70C106 70 107 70 108 68C109 67 110 65 109 63C109 61 107 57 107 56C106 56 105 57 105 59C106 61 106 63 106 64C105 66 104 68 103 69C102 70 105 70 105 70ZM111 59C111 59 113 59 113 58C114 56 116 52 115 50C114 48 113 46 111 46C109 46 107 47 106 50C106 53 111 59 111 59ZM140 82C140 82 143 81 141 73C138 65 135 60 132 58C128 56 124 56 122 61C119 67 118 67 117 68C115 69 116 73 119 76C123 79 134 87 140 82ZM152 87C152 87 151 84 149 82C148 81 146 81 145 82C144 83 143 85 144 86C145 88 151 89 152 87ZM166 90C166 90 172 95 172 97C173 98 174 102 173 103C173 105 172 106 170 105C168 103 167 100 167 98C166 95 164 89 166 90Z" fill="#076EFF"/>
<path fill-rule="evenodd" clip-rule="evenodd" d="M54 75C54 75 56 75 56 76C57 77 56 79 56 79C56 79 59 81 59 82C58 83 57 85 55 85C54 85 48 88 46 90C43 91 30 95 27 96C23 96 21 95 21 94C22 93 23 92 24 91C26 90 24 89 25 88C25 87 25 90 29 90C33 89 39 87 44 84C48 81 51 80 52 78C52 77 52 75 54 75Z" fill="#076EFF"/>
<path fill-rule="evenodd" clip-rule="evenodd" d="M51 78C47 69 35 68 44 75C44 75 46 78 47 80L51 78Z" fill="#076EFF"/>
<path fill-rule="evenodd" clip-rule="evenodd" d="M56 95C56 95 55 91 54 87L51 88C52 89 53 91 54 94C54 95 53 95 54 96C55 97 56 96 56 95Z" fill="#076EFF"/>
<path fill-rule="evenodd" clip-rule="evenodd" d="M43 83C42 81 39 78 37 77C35 75 33 71 33 76C34 80 39 81 41 84C42 84 42 83 43 83Z" fill="#076EFF"/>
<path fill-rule="evenodd" clip-rule="evenodd" d="M50 100C50 99 49 96 49 93C49 93 48 92 47 90C46 91 46 91 44 92C45 93 45 93 45 94C47 97 47 100 48 101C49 102 50 100 50 100Z" fill="#076EFF"/>
<path fill-rule="evenodd" clip-rule="evenodd" d="M161 115C160 116 157 119 156 120C154 120 151 121 151 121L156 114C158 115 159 115 161 115Z" fill="#076EFF"/>
<path fill-rule="evenodd" clip-rule="evenodd" d="M155 114C154 115 152 118 150 118C149 119 146 120 146 120L150 113C152 113 154 114 155 114Z" fill="#076EFF"/>
<path fill-rule="evenodd" clip-rule="evenodd" d="M149 113C148 114 146 116 145 117C143 118 140 119 140 119L144 112C146 112 147 112 149 113Z" fill="#076EFF"/>
<path fill-rule="evenodd" clip-rule="evenodd" d="M142 111C141 112 138 114 137 114C135 115 131 116 131 116L138 109C140 110 141 110 142 111Z" fill="#076EFF"/>
<path fill-rule="evenodd" clip-rule="evenodd" d="M136 108C135 108 132 109 131 109C129 110 125 109 125 109L132 105C134 106 135 107 136 108Z" fill="#076EFF"/>
<path fill-rule="evenodd" clip-rule="evenodd" d="M131 103C129 104 126 105 125 105C123 105 119 105 119 105L128 100V101C129 102 130 103 131 103Z" fill="#076EFF"/>
<path fill-rule="evenodd" clip-rule="evenodd" d="M127 99C127 99 121 99 119 99C118 98 114 97 114 97L124 95V96L127 99Z" fill="#076EFF"/>
<path fill-rule="evenodd" clip-rule="evenodd" d="M136 131C136 130 137 129 137 128C138 127 139 123 139 123L132 129C134 130 135 131 136 131Z" fill="#076EFF"/>
<path fill-rule="evenodd" clip-rule="evenodd" d="M131 128C132 127 133 126 133 125C133 124 134 120 134 120L127 127C129 127 130 128 131 128Z" fill="#076EFF"/>
<path fill-rule="evenodd" clip-rule="evenodd" d="M125 126C126 124 126 123 127 122C127 120 127 116 127 116L122 124C123 124 124 125 125 125C125 126 125 126 125 126Z" fill="#076EFF"/>
<path fill-rule="evenodd" clip-rule="evenodd" d="M121 123C121 122 122 119 122 118C122 117 122 113 122 113L117 120L118 122C119 122 120 123 121 123Z" fill="#076EFF"/>
<path fill-rule="evenodd" clip-rule="evenodd" d="M112 117C112 115 113 112 113 111C113 109 113 105 113 105L109 113L110 115C110 116 111 116 112 117Z" fill="#076EFF"/>
<path fill-rule="evenodd" clip-rule="evenodd" d="M107 111C107 110 108 106 109 105C109 103 108 99 108 99L104 106C105 108 106 110 107 111Z" fill="#076EFF"/>
<path fill-rule="evenodd" clip-rule="evenodd" d="M105 18C107 16 103 12 102 9C100 6 102 2 100 0.999999C98 -6.55651e-07 95 4 91 7C87 11 43 24 40 24C37 25 30 21 27 22C24 24 25 29 29 30C33 31 29 34 29 36C29 39 35 43 38 40C42 37 45 30 47 29C49 29 89 14 93 16C96 16 98 22 105 18Z" fill="#076EFF"/>
<path fill-rule="evenodd" clip-rule="evenodd" d="M23 49C22 46 17 49 14 49C11 49 8 46 6 47C4 49 7 53 9 58C11 63 8 109 7 112C7 115 -5.43892e-07 120 0.999999 123C2 127 7 127 9 124C11 121 12 125 15 126C17 127 23 124 21 119C19 114 14 109 14 107C14 105 15 62 17 59C19 57 25 56 23 49Z" fill="#076EFF"/>
</svg>
