<svg width="64" height="52" viewBox="0 0 64 52" fill="none" xmlns="http://www.w3.org/2000/svg">
<path d="M64 29.28C63.9256 30.7268 63.5542 32.1428 62.9091 33.44C62.264 34.7371 61.3588 35.8876 60.25 36.82C58.1617 38.5651 55.7956 39.9476 53.25 40.91C46.1185 43.907 38.63 45.9707 30.97 47.05H30.8C30.6687 47.0592 30.5368 47.0424 30.412 47.0007C30.2871 46.9589 30.1718 46.893 30.0724 46.8066C29.8717 46.6322 29.7486 46.3852 29.73 46.12C29.7114 45.8548 29.799 45.5931 29.9734 45.3924C30.1478 45.1917 30.3948 45.0686 30.66 45.05C38.1486 43.9987 45.4695 41.9819 52.44 39.05C54.7871 38.1709 56.9731 36.9106 58.91 35.32C59.8118 34.5747 60.5513 33.6524 61.0828 32.6101C61.6143 31.5678 61.9264 30.4276 62 29.26C61.9383 27.9664 61.5808 26.7043 60.9549 25.5705C60.3291 24.4368 59.4517 23.4616 58.39 22.72C56.1149 21.1508 53.5473 20.0557 50.84 19.5C43.1696 17.5851 35.1949 17.2146 27.38 18.41C25.4476 18.613 23.5747 19.1977 21.87 20.13C21.1105 20.558 20.4673 21.1655 19.9967 21.8994C19.526 22.6332 19.2422 23.4712 19.17 24.34C19.198 25.1079 19.4119 25.8576 19.7934 26.5247C20.1748 27.1918 20.7124 27.7564 21.36 28.17C22.7727 29.0697 24.4152 29.5419 26.09 29.53C29.6153 29.6014 33.0312 28.3039 35.62 25.91C35.8136 25.727 36.072 25.6284 36.3383 25.6359C36.6046 25.6434 36.857 25.7564 37.04 25.95C37.223 26.1436 37.3216 26.402 37.3141 26.6683C37.3066 26.9346 37.1936 27.187 37 27.37C34.0335 30.1197 30.1139 31.6079 26.07 31.52C24.0028 31.5317 21.9769 30.941 20.24 29.82C19.3368 29.2097 18.5931 28.3918 18.0711 27.4349C17.5491 26.4779 17.2641 25.4098 17.24 24.32C17.309 23.1143 17.6781 21.9449 18.3137 20.918C18.9494 19.8912 19.8315 19.0394 20.88 18.44C22.8065 17.349 24.9378 16.668 27.14 16.44C35.2206 15.1946 43.4685 15.5754 51.4 17.56C54.3702 18.1769 57.1839 19.3916 59.67 21.13C60.9664 22.0674 62.0308 23.2894 62.7814 24.7022C63.532 26.115 63.9489 27.681 64 29.28Z" fill="#076EFF"/>
<path d="M27.49 46.05C27.49 46.3152 27.3846 46.5696 27.1971 46.7571C27.0096 46.9446 26.7552 47.05 26.49 47.05C25.6527 47.0526 24.8505 47.3864 24.2585 47.9785C23.6664 48.5705 23.3326 49.3727 23.33 50.21C23.33 50.4752 23.2246 50.7296 23.0371 50.9171C22.8496 51.1046 22.5952 51.21 22.33 51.21C22.0648 51.21 21.8104 51.1046 21.6229 50.9171C21.4354 50.7296 21.33 50.4752 21.33 50.21C21.3248 49.3735 20.9901 48.5728 20.3987 47.9813C19.8072 47.3899 19.0065 47.0552 18.17 47.05C17.9048 47.05 17.6504 46.9446 17.4629 46.7571C17.2754 46.5696 17.17 46.3152 17.17 46.05C17.17 45.7848 17.2754 45.5304 17.4629 45.3429C17.6504 45.1554 17.9048 45.05 18.17 45.05C19.009 45.0473 19.8127 44.7122 20.4051 44.118C20.9974 43.5238 21.33 42.719 21.33 41.88C21.33 41.6148 21.4354 41.3604 21.6229 41.1729C21.8104 40.9854 22.0648 40.88 22.33 40.88C22.5952 40.88 22.8496 40.9854 23.0371 41.1729C23.2246 41.3604 23.33 41.6148 23.33 41.88C23.3326 42.7182 23.6661 43.5215 24.2578 44.1151C24.8496 44.7087 25.6518 45.0447 26.49 45.05C26.7552 45.05 27.0096 45.1554 27.1971 45.3429C27.3846 45.5304 27.49 45.7848 27.49 46.05Z" fill="#076EFF"/>
<path d="M36.92 35.56C33.84 36.0409 30.7273 36.2816 27.61 36.28C22.5701 36.2807 17.5493 35.6628 12.66 34.44C9.69037 33.8212 6.87704 32.6067 4.39 30.87C3.08029 29.9411 2.00274 28.7224 1.24128 27.3087C0.479826 25.8951 0.0550338 24.3247 0 22.72C0.0719975 21.2737 0.44125 19.8578 1.08472 18.5605C1.7282 17.2632 2.63208 16.1125 3.74 15.18C5.8299 13.4372 8.19564 12.055 10.74 11.09C17.8861 8.10564 25.3884 6.05864 33.06 5C33.1913 4.98161 33.325 4.98927 33.4533 5.02254C33.5817 5.05581 33.7023 5.11404 33.8081 5.19389C33.914 5.27375 34.0031 5.37368 34.0703 5.48797C34.1375 5.60226 34.1816 5.72867 34.2 5.86C34.2184 5.99132 34.2107 6.12498 34.1775 6.25334C34.1442 6.3817 34.086 6.50225 34.0061 6.60811C33.9262 6.71397 33.8263 6.80306 33.712 6.8703C33.5977 6.93754 33.4713 6.98161 33.34 7C25.8482 8.05136 18.524 10.0681 11.55 13C9.2029 13.8791 7.01689 15.1394 5.08 16.73C4.18677 17.4713 3.45324 18.3862 2.92384 19.4192C2.39443 20.4523 2.08014 21.582 2 22.74C2.06172 24.0335 2.41924 25.2957 3.04506 26.4295C3.67088 27.5632 4.54835 28.5384 5.61 29.28C7.88153 30.8489 10.4459 31.944 13.15 32.5C20.8238 34.4149 28.8017 34.7854 36.62 33.59C38.5521 33.3857 40.4247 32.8011 42.13 31.87C42.8884 31.4406 43.5307 30.8328 44.0011 30.0992C44.4716 29.3656 44.7561 28.5284 44.83 27.66C44.7978 26.893 44.5822 26.1449 44.2011 25.4785C43.82 24.8121 43.2847 24.2467 42.64 23.83C41.2235 22.9306 39.5779 22.4584 37.9 22.47C34.3767 22.3927 30.9618 23.6912 28.38 26.09C28.2841 26.1806 28.1714 26.2515 28.0481 26.2985C27.9249 26.3455 27.7936 26.3678 27.6617 26.3641C27.5299 26.3604 27.4 26.3307 27.2796 26.2768C27.1592 26.2229 27.0506 26.1459 26.96 26.05C26.8694 25.9541 26.7985 25.8414 26.7515 25.7181C26.7045 25.5949 26.6822 25.4636 26.6859 25.3317C26.6896 25.1999 26.7193 25.07 26.7732 24.9496C26.8271 24.8292 26.9041 24.7206 27 24.63C29.9834 21.8623 33.9319 20.3726 38 20.48C40.0643 20.4667 42.0874 21.0577 43.82 22.18C44.7355 22.7823 45.4918 23.597 46.0246 24.5547C46.5574 25.5123 46.8509 26.5845 46.88 27.68C46.8092 28.8853 46.4394 30.054 45.8039 31.0805C45.1684 32.1071 44.2873 32.9592 43.24 33.56C41.2948 34.6576 39.1425 35.3386 36.92 35.56Z" fill="#076EFF"/>
<path d="M36.5 6C36.5 5.73478 36.6054 5.48043 36.7929 5.29289C36.9804 5.10535 37.2348 5 37.5 5C38.339 5 39.1438 4.66739 39.738 4.07506C40.3322 3.48273 40.6674 2.679 40.67 1.84C40.67 1.57478 40.7754 1.32043 40.9629 1.13289C41.1504 0.945353 41.4048 0.839996 41.67 0.839996C41.9352 0.839996 42.1896 0.945353 42.3771 1.13289C42.5646 1.32043 42.67 1.57478 42.67 1.84C42.6752 2.67646 43.0099 3.47718 43.6013 4.06866C44.1928 4.66014 44.9935 4.99475 45.83 5C46.0952 5 46.3496 5.10535 46.5371 5.29289C46.7246 5.48043 46.83 5.73478 46.83 6C46.83 6.26521 46.7246 6.51957 46.5371 6.7071C46.3496 6.89464 46.0952 7 45.83 7C45.4142 6.99999 45.0024 7.08206 44.6184 7.24149C44.2344 7.40092 43.8856 7.63458 43.592 7.92907C43.2984 8.22356 43.0659 8.5731 42.9077 8.95765C42.7494 9.34219 42.6687 9.75418 42.67 10.17C42.67 10.4352 42.5646 10.6896 42.3771 10.8771C42.1896 11.0646 41.9352 11.17 41.67 11.17C41.4048 11.17 41.1504 11.0646 40.9629 10.8771C40.7754 10.6896 40.67 10.4352 40.67 10.17C40.6683 9.75316 40.5844 9.34075 40.4231 8.95638C40.2618 8.57201 40.0263 8.22323 39.73 7.93C39.4385 7.63495 39.0912 7.4008 38.7084 7.24115C38.3255 7.08149 37.9148 6.99952 37.5 7C37.2348 7 36.9804 6.89464 36.7929 6.7071C36.6054 6.51957 36.5 6.26521 36.5 6Z" fill="#076EFF"/>
<path d="M14.71 21.08C14.9752 21.08 15.2296 21.1854 15.4171 21.3729C15.6046 21.5604 15.71 21.8148 15.71 22.08C15.71 22.3452 15.6046 22.5996 15.4171 22.7871C15.2296 22.9746 14.9752 23.08 14.71 23.08C13.8727 23.0826 13.0705 23.4164 12.4785 24.0085C11.8864 24.6005 11.5526 25.4027 11.55 26.24C11.55 26.5052 11.4446 26.7596 11.2571 26.9471C11.0696 27.1346 10.8152 27.24 10.55 27.24C10.2848 27.24 10.0304 27.1346 9.84289 26.9471C9.65536 26.7596 9.55 26.5052 9.55 26.24C9.53954 25.407 9.20262 24.6114 8.6117 24.0242C8.02078 23.437 7.22304 23.1052 6.39 23.1C6.12478 23.1 5.87043 22.9946 5.68289 22.8071C5.49536 22.6196 5.39 22.3652 5.39 22.1C5.39 21.8348 5.49536 21.5804 5.68289 21.3929C5.87043 21.2054 6.12478 21.1 6.39 21.1C7.229 21.0973 8.03274 20.7622 8.62507 20.168C9.2174 19.5738 9.55 18.769 9.55 17.93C9.55 17.6648 9.65536 17.4104 9.84289 17.2229C10.0304 17.0354 10.2848 16.93 10.55 16.93C10.8152 16.93 11.0696 17.0354 11.2571 17.2229C11.4446 17.4104 11.55 17.6648 11.55 17.93C11.5552 18.7674 11.8895 19.5692 12.4807 20.1622C13.0719 20.7553 13.8726 21.0921 14.71 21.1V21.08Z" fill="#076EFF"/>
</svg>
