<svg width="88" height="88" viewBox="0 0 88 88" fill="none" xmlns="http://www.w3.org/2000/svg">
<path d="M87.9486 67.3658C86.7986 63.9958 85.0086 60.3858 80.5086 59.1558C79.4486 58.8658 77.9386 58.7558 76.1786 58.6258C73.6886 58.4458 70.5986 58.2258 67.9586 57.4058C65.5386 56.6558 63.8986 55.5358 62.9586 53.9858C62.8386 53.7558 62.6986 53.4858 62.5486 53.1758L62.5286 53.1358C62.5086 53.0858 62.4786 53.0358 62.4586 52.9858C61.3986 50.7058 59.9886 46.7658 60.1086 44.0758C60.1786 42.6158 60.8286 40.8358 61.9486 39.0758C62.9386 37.5158 63.9586 36.5158 64.2786 36.3258C64.5786 36.2058 64.8086 35.9858 64.9686 35.7358C66.3386 34.9558 67.7686 33.5758 69.3086 31.5458C69.6986 31.0358 70.0786 30.4958 70.4386 29.9658C71.0986 30.1758 71.8286 30.2758 72.5986 30.2758C73.1086 30.2758 73.6386 30.2258 74.1886 30.1358C75.8486 29.8458 77.5086 29.1358 78.6286 28.2158C79.2586 27.6958 79.3486 26.7658 78.8386 26.1358C78.3286 25.5058 77.3886 25.4158 76.7586 25.9258C75.4886 26.9658 73.5886 27.4058 72.1486 27.2758C72.6186 26.4858 73.0286 25.7758 73.3586 25.2058C73.4686 25.0158 73.5686 24.8358 73.6586 24.6758C75.0986 22.1958 76.6486 20.6558 79.9286 20.6558C80.7486 20.6558 81.4086 19.9958 81.4086 19.1758C81.4086 18.3558 80.7486 17.6958 79.9286 17.6958C77.7186 17.6958 75.8986 18.2358 74.3486 19.3558C73.5886 19.9058 72.4286 20.8958 71.0986 23.1858C71.0086 23.3458 70.8986 23.5258 70.7886 23.7258C69.9486 25.1858 68.5386 27.6358 66.9586 29.7358C64.7186 32.6858 63.3286 33.3458 62.6686 33.4758C60.7186 33.5458 55.8086 33.0958 52.7086 31.7158C51.3686 31.1158 49.9586 29.8658 48.7186 28.1758C47.8386 26.9758 47.2986 25.8858 47.0986 25.3158C47.5986 23.3358 47.6086 21.1558 47.5486 19.7658C47.4686 17.9958 47.2086 16.1858 46.7986 14.4158C47.2486 14.1558 47.6986 13.7958 48.1386 13.3358C49.5786 11.8458 51.0486 9.10578 50.4686 6.29578C50.3086 5.49578 49.5286 4.98578 48.7286 5.14578C47.9286 5.30578 47.4186 6.08578 47.5786 6.88578C47.7886 7.89578 47.4986 9.12578 46.7986 10.2658C46.5086 10.7258 46.2086 11.0958 45.9286 11.3758C45.7086 10.7258 45.4586 10.0858 45.1886 9.46578C43.6386 5.85578 44.4386 4.17578 45.2186 2.55578C45.2986 2.39578 45.3686 2.24578 45.4386 2.09578C45.7786 1.35578 45.4586 0.475783 44.7186 0.135783C43.9786 -0.204217 43.0986 0.115783 42.7586 0.855783C42.6986 0.995783 42.6286 1.13578 42.5586 1.27578C41.6986 3.07578 40.3986 5.78578 42.4786 10.6258C43.6986 13.4658 44.4486 16.7658 44.5986 19.9058C44.6886 21.8058 44.5386 23.1958 44.3286 24.1958L44.3086 24.2158C44.3086 24.2158 44.2886 24.2558 44.2686 24.2758C44.2586 24.2958 44.2386 24.3158 44.2286 24.3358C44.2186 24.3558 44.2086 24.3758 44.1986 24.3958C44.1886 24.4158 44.1786 24.4358 44.1686 24.4658C44.1686 24.4858 44.1486 24.5058 44.1386 24.5258C44.1386 24.5458 44.1186 24.5758 44.1086 24.5958C44.1086 24.6158 44.0986 24.6458 44.0886 24.6658C44.0886 24.6858 44.0786 24.7158 44.0686 24.7358C44.0686 24.7558 44.0686 24.7858 44.0586 24.8058C44.0586 24.8258 44.0586 24.8558 44.0486 24.8758C44.0486 24.8958 44.0486 24.9258 44.0486 24.9458C44.0486 24.9658 44.0486 24.9858 44.0486 25.0058C43.9886 25.3758 43.4286 26.6858 42.3386 28.1758C41.1086 29.8558 39.6886 31.1158 38.3486 31.7158C35.0086 33.1958 29.5786 33.6058 27.9986 33.4458C26.8186 32.4658 25.5786 31.5658 24.6686 30.9358C23.5786 30.1858 22.4486 29.4658 21.3786 28.8258C21.5786 27.5658 21.4986 25.8958 21.1086 24.2158C20.5886 21.9558 19.3286 18.8158 16.2486 16.7258C15.5786 16.2658 14.6586 16.4458 14.1986 17.1158C13.7386 17.7858 13.9186 18.7058 14.5886 19.1658C16.7986 20.6658 17.7586 22.9758 18.1786 24.6458C18.4286 25.6358 18.5186 26.5458 18.5286 27.2558C17.8986 26.9458 17.3186 26.6958 16.8186 26.5058C15.8686 26.1558 14.8586 25.8858 13.7786 25.5958C10.8786 24.8258 7.87862 24.0258 6.89862 21.7358C6.57862 20.9858 5.70862 20.6358 4.95862 20.9558C4.20862 21.2758 3.85862 22.1458 4.17862 22.8958C4.88862 24.5458 6.16862 25.8258 8.09862 26.7858C9.64862 27.5558 11.3586 28.0158 13.0086 28.4558C14.0186 28.7258 14.9686 28.9758 15.7886 29.2758C16.6186 29.5858 17.6686 30.0958 18.8086 30.7358H18.8286C18.8886 30.7858 18.9486 30.8158 19.0086 30.8458C21.3786 32.1858 24.1086 34.0358 26.0786 35.6658C26.2386 35.9258 26.4686 36.1358 26.7686 36.2658L26.8086 36.2858C27.1086 36.5558 27.3886 36.8158 27.6286 37.0658C28.0586 37.5358 28.5786 38.2058 29.0986 39.0158C30.2186 40.7758 30.8686 42.5558 30.9386 44.0158C31.0886 47.3658 28.8786 52.6358 27.9086 54.2658C24.5886 55.3058 22.0186 56.7558 19.9386 58.1958C18.7286 56.8458 16.8586 55.7358 14.6386 55.0758C11.9686 54.2858 9.28862 54.2958 7.28862 55.1158C6.53862 55.4258 6.16862 56.2858 6.47862 57.0358C6.78862 57.7858 7.64862 58.1558 8.39862 57.8458C9.75862 57.2858 11.7786 57.3058 13.7886 57.9058C15.3386 58.3658 16.6986 59.1258 17.5486 59.9758C17.2186 60.2358 16.9086 60.4858 16.6086 60.7258C15.4886 61.6258 14.5186 62.4058 13.5786 62.9658C11.9086 63.9758 9.65862 64.5058 7.56862 64.3858C6.29862 64.3158 3.96862 63.9158 2.68862 62.0658C2.22862 61.3958 1.30862 61.2258 0.638617 61.6858C-0.0313826 62.1458 -0.201383 63.0658 0.258617 63.7358C1.73862 65.8758 4.27862 67.1558 7.39862 67.3258C7.63862 67.3358 7.87862 67.3458 8.11862 67.3458C10.5686 67.3458 13.1186 66.6758 15.0886 65.4858C16.1986 64.8158 17.2886 63.9458 18.4486 63.0158C21.3386 60.6958 24.9286 57.8058 31.1086 56.4558C31.8086 56.4058 32.7186 56.4058 33.7486 56.4858C36.0986 56.6658 38.0586 57.2158 39.2786 58.0258C42.3386 60.0658 43.6186 62.8858 44.0186 64.0058C43.3386 66.6858 43.2086 69.8058 43.6786 72.4258C41.4486 72.9958 39.2786 74.5858 37.8886 76.1958C36.1786 78.1758 35.4186 80.2958 35.7486 82.1758C35.8786 82.8858 36.4986 83.3958 37.1986 83.3958C37.2886 83.3958 37.3686 83.3958 37.4586 83.3758C38.2586 83.2358 38.7986 82.4658 38.6486 81.6658C38.4786 80.7158 39.0286 79.3958 40.1086 78.1358C41.3586 76.6858 43.0786 75.5958 44.5086 75.2658C45.1286 76.7658 45.8086 78.6558 45.9686 80.4458C46.1486 82.4258 45.6686 83.9058 44.4886 84.9858C43.8886 85.5358 43.8486 86.4758 44.3986 87.0758C44.6886 87.3958 45.0886 87.5558 45.4886 87.5558C45.8486 87.5558 46.1986 87.4258 46.4886 87.1658C48.3586 85.4458 49.1686 83.0958 48.9086 80.1858C48.6986 77.8858 47.8386 75.5958 47.1186 73.8558C47.0386 73.6758 46.9786 73.4858 46.9086 73.2858V73.2458C45.9086 70.1558 46.2686 65.1858 47.7486 62.3558C48.4786 61.0458 49.7186 59.3758 51.7186 58.0458C52.9386 57.2358 54.8986 56.6858 57.2486 56.5058C59.2086 56.3558 60.7186 56.5158 61.2386 56.6658C63.3086 59.1058 66.5286 60.2558 69.7686 60.8558C69.9186 62.3158 70.4286 63.7558 71.3186 65.1558C72.3386 66.7658 73.6886 68.0758 74.6086 68.9158C74.8886 69.1758 75.2486 69.2958 75.5986 69.2958C75.9986 69.2958 76.3986 69.1358 76.6886 68.8158C77.2386 68.2158 77.1886 67.2758 76.5886 66.7358C75.0386 65.3258 73.3286 63.5058 72.8186 61.2958C73.9086 61.4058 74.9586 61.4858 75.9186 61.5558C77.5186 61.6758 78.8986 61.7758 79.6786 61.9858C82.6686 62.8058 84.0086 65.1058 85.1086 68.3158C85.3186 68.9258 85.8886 69.3158 86.5086 69.3158C86.6686 69.3158 86.8286 69.2858 86.9886 69.2358C87.7586 68.9758 88.1686 68.1358 87.9086 67.3658H87.9486ZM45.5386 50.0858C42.7286 50.0858 40.4386 47.7958 40.4386 44.9858C40.4386 42.1758 42.7286 39.8858 45.5386 39.8858C48.3486 39.8858 50.6386 42.1758 50.6386 44.9858C50.6386 47.7958 48.3486 50.0858 45.5386 50.0858Z" fill="#076EFF"/>
</svg>
