<svg width="500" height="500" viewBox="0 0 500 500" fill="none" xmlns="http://www.w3.org/2000/svg">
<path d="M449.259 250.566C453.193 250.576 457.091 249.81 460.729 248.312C464.366 246.814 467.673 244.612 470.458 241.834C473.244 239.056 475.454 235.756 476.962 232.122C478.469 228.488 479.246 224.593 479.246 220.659C479.246 216.725 478.469 212.829 476.962 209.195C475.454 205.562 473.244 202.261 470.458 199.483C467.673 196.705 464.366 194.504 460.729 193.005C457.091 191.507 453.193 190.741 449.259 190.751C448.6 190.751 447.981 190.904 447.333 190.946L437.297 151.358C440.628 148.87 443.402 145.712 445.44 142.087C447.478 138.463 448.734 134.452 449.129 130.312C449.524 126.173 449.048 121.996 447.731 118.052C446.415 114.107 444.288 110.482 441.487 107.409C438.685 104.336 435.272 101.883 431.466 100.209C427.659 98.534 423.545 97.6745 419.387 97.6854C415.228 97.6963 411.118 98.5774 407.321 100.272C403.524 101.967 400.123 104.437 397.338 107.525L295.453 60.1617C296.519 57.1332 297.083 53.9509 297.123 50.7406C297.133 46.8065 296.367 42.909 294.869 39.2714C293.371 35.6337 291.169 32.3275 288.391 29.542C285.613 26.7564 282.313 24.5464 278.679 23.0385C275.045 21.5306 271.15 20.7544 267.216 20.7544C263.282 20.7544 259.386 21.5306 255.753 23.0385C252.119 24.5464 248.818 26.7564 246.04 29.542C243.262 32.3275 241.061 35.6337 239.562 39.2714C238.064 42.909 237.298 46.8065 237.309 50.7406C237.358 51.7656 237.462 52.7872 237.619 53.8012L172.745 73.6808C168.272 68.0946 161.936 64.306 154.898 63.0083C147.861 61.7107 140.591 62.9908 134.419 66.6145C128.248 70.2381 123.588 75.9629 121.292 82.7411C118.996 89.5193 119.218 96.8977 121.917 103.526L60.8623 158.011C56.2612 155.198 50.9785 153.697 45.5856 153.67C38.4461 153.649 31.5358 156.189 26.1108 160.831C20.6857 165.472 17.1059 171.906 16.022 178.963C14.9382 186.019 16.4221 193.231 20.2043 199.286C23.9864 205.342 29.8156 209.839 36.6325 211.962L32.58 250.828C28.0268 251.463 23.6818 253.141 19.8842 255.732C16.0866 258.323 12.9392 261.756 10.6877 265.764C8.43624 269.772 7.14158 274.247 6.90482 278.838C6.66807 283.429 7.49562 288.013 9.32287 292.231C11.1501 296.449 13.9276 300.188 17.4386 303.156C20.9495 306.124 25.0988 308.24 29.5627 309.34C34.0265 310.439 38.684 310.492 43.1716 309.494C47.6592 308.496 51.8554 306.474 55.4327 303.587L75.5565 312.437C75.5513 312.652 75.494 312.852 75.494 313.066C75.4843 320.542 78.2785 327.75 83.3245 333.266C88.3706 338.782 95.3016 342.205 102.749 342.859C110.196 343.513 117.618 341.351 123.548 336.799C129.479 332.248 133.487 325.638 134.781 318.275H157.777C159.578 324.778 163.534 330.478 168.997 334.439C174.46 338.401 181.106 340.39 187.847 340.08C194.588 339.771 201.025 337.182 206.102 332.737C211.18 328.292 214.597 322.254 215.795 315.613L280.524 317.727C285.261 321.814 291.184 324.274 297.423 324.743C303.662 325.213 309.887 323.668 315.182 320.335C351.721 340.27 382.541 369.237 404.7 404.473C403.243 408.024 402.489 411.823 402.48 415.661C402.454 420.771 403.737 425.802 406.208 430.275C408.679 434.748 412.254 438.513 416.593 441.211C420.933 443.91 425.891 445.451 430.995 445.689C436.099 445.927 441.179 444.853 445.75 442.57C450.322 440.287 454.232 436.87 457.108 432.647C459.984 428.423 461.729 423.533 462.179 418.443C462.628 413.353 461.765 408.233 459.674 403.571C457.582 398.909 454.331 394.861 450.23 391.812C439.766 376.583 432.42 359.434 428.613 341.354C433.741 339.723 438.328 336.726 441.881 332.685C445.434 328.644 447.82 323.711 448.781 318.417C449.742 313.122 449.243 307.666 447.338 302.634C445.432 297.601 442.192 293.183 437.964 289.854L449.235 250.565L449.259 250.566ZM461.019 220.659C461.019 222.984 460.329 225.258 459.037 227.192C457.745 229.126 455.909 230.633 453.76 231.523C451.611 232.413 449.247 232.646 446.965 232.192C444.684 231.739 442.589 230.619 440.944 228.974C439.3 227.329 438.18 225.234 437.726 222.953C437.272 220.672 437.505 218.307 438.395 216.159C439.285 214.01 440.792 212.173 442.726 210.881C444.66 209.589 446.934 208.899 449.259 208.899C452.378 208.901 455.368 210.14 457.573 212.345C459.778 214.55 461.017 217.54 461.019 220.659ZM437.186 193.35C432.303 195.533 428.096 198.986 425.003 203.349C421.911 207.713 420.046 212.826 419.605 218.156H396.244C395.903 214.086 394.727 210.13 392.789 206.534C390.851 202.939 388.192 199.781 384.979 197.259L414.3 156.988C418.786 157.888 423.429 157.597 427.768 156.144L437.186 193.35ZM389.823 309.341L329.431 293.877C329.188 287.136 326.653 280.681 322.243 275.577L346.632 242.762C350.37 246.286 354.987 248.74 359.998 249.868C365.01 250.996 370.233 250.756 375.12 249.174L401.213 289.462C398.094 291.858 395.482 294.849 393.527 298.261C391.572 301.673 390.313 305.439 389.823 309.341ZM171.876 112.188L256.918 156.678C255.1 161.96 254.976 167.678 256.561 173.034L201.973 201.108C199.194 197.873 195.752 195.274 191.88 193.487C188.008 191.7 183.797 190.767 179.532 190.751C179.287 190.751 179.059 190.817 178.815 190.824L159.143 120.614C164.047 118.959 168.435 116.054 171.876 112.188ZM404.161 153.205L375.689 192.32C370.884 190.66 365.724 190.309 360.738 191.304C355.753 192.3 351.123 194.605 347.324 197.984L314.186 172.974C315.327 169.404 315.578 165.61 314.915 161.921L392.141 139.844C394.688 145.421 398.883 150.084 404.161 153.205ZM366.59 232.418C364.264 232.418 361.99 231.728 360.057 230.436C358.123 229.144 356.615 227.307 355.725 225.159C354.835 223.01 354.602 220.645 355.056 218.364C355.51 216.083 356.63 213.988 358.275 212.343C359.919 210.699 362.014 209.579 364.296 209.125C366.577 208.671 368.941 208.904 371.09 209.794C373.239 210.684 375.075 212.191 376.368 214.125C377.66 216.059 378.349 218.333 378.349 220.659C378.348 223.777 377.108 226.767 374.903 228.972C372.698 231.177 369.708 232.417 366.59 232.418ZM285.364 177.189C283.038 177.189 280.764 176.499 278.83 175.207C276.896 173.915 275.389 172.078 274.499 169.93C273.609 167.781 273.376 165.416 273.83 163.135C274.283 160.854 275.403 158.759 277.048 157.114C278.693 155.47 280.788 154.35 283.069 153.896C285.35 153.442 287.715 153.675 289.863 154.565C292.012 155.455 293.849 156.962 295.141 158.896C296.433 160.83 297.123 163.104 297.123 165.429C297.121 168.548 295.882 171.538 293.677 173.743C291.472 175.948 288.482 177.187 285.364 177.189ZM179.532 208.899C181.858 208.899 184.132 209.589 186.066 210.881C188 212.173 189.507 214.01 190.397 216.158C191.287 218.307 191.52 220.672 191.066 222.953C190.612 225.234 189.492 227.329 187.848 228.974C186.203 230.619 184.108 231.739 181.827 232.192C179.545 232.646 177.181 232.413 175.032 231.523C172.883 230.633 171.047 229.126 169.755 227.192C168.463 225.258 167.773 222.984 167.773 220.659C167.774 217.54 169.014 214.55 171.219 212.345C173.424 210.14 176.414 208.901 179.532 208.899ZM209.44 220.659C209.417 217.016 208.723 213.409 207.391 210.019L260.896 182.523C263.642 186.471 267.3 189.698 271.56 191.928C275.82 194.159 280.556 195.329 285.365 195.337C285.54 195.337 285.703 195.287 285.877 195.285L276.826 271.542L195.456 281.84C193.832 281.319 192.166 280.939 190.477 280.706L184.26 250.088C191.267 248.968 197.647 245.393 202.26 240.002C206.873 234.61 209.418 227.754 209.44 220.659ZM186.436 298.444C188.761 298.444 191.035 299.134 192.969 300.426C194.903 301.718 196.41 303.555 197.3 305.703C198.19 307.852 198.423 310.217 197.969 312.498C197.515 314.779 196.395 316.874 194.751 318.519C193.106 320.163 191.011 321.283 188.73 321.737C186.449 322.191 184.084 321.958 181.936 321.068C179.787 320.178 177.95 318.671 176.658 316.737C175.366 314.803 174.676 312.529 174.676 310.204C174.678 307.085 175.917 304.095 178.122 301.89C180.327 299.685 183.317 298.446 186.436 298.444ZM208.86 290.634L272.455 282.599C270.672 286.426 269.74 290.593 269.722 294.814C269.705 299.035 270.603 303.21 272.354 307.051L215.837 305.199C214.904 299.792 212.488 294.75 208.86 290.634ZM296.63 193.092C301.899 190.924 306.442 187.302 309.729 182.648L340.68 206.014C338.173 210.258 336.799 215.075 336.689 220.002C336.58 224.93 337.739 229.803 340.055 234.154L314.169 268.952C310.202 266.649 305.748 265.314 301.168 265.057C296.588 264.799 292.012 265.626 287.812 267.47L296.63 193.092ZM419.352 115.833C421.678 115.833 423.952 116.523 425.885 117.815C427.819 119.107 429.326 120.944 430.216 123.093C431.106 125.241 431.339 127.606 430.885 129.887C430.432 132.168 429.312 134.263 427.667 135.908C426.023 137.552 423.927 138.672 421.646 139.126C419.365 139.58 417.001 139.347 414.852 138.457C412.703 137.567 410.867 136.06 409.575 134.126C408.282 132.192 407.593 129.918 407.593 127.593C407.594 124.474 408.834 121.484 411.039 119.279C413.244 117.074 416.234 115.835 419.352 115.833ZM391.675 116.37C390.21 119.93 389.453 123.742 389.445 127.593C389.445 128.322 389.609 129.007 389.661 129.722L311.902 151.942C309.425 147.023 305.634 142.885 300.95 139.987C296.266 137.089 290.871 135.544 285.364 135.522C284.452 135.522 283.593 135.712 282.701 135.792L271.851 80.1785C279.189 79.0114 285.825 75.1399 290.452 69.3258L391.675 116.37ZM267.216 38.981C269.541 38.981 271.815 39.6706 273.749 40.9628C275.683 42.2549 277.19 44.0915 278.08 46.2403C278.97 48.3891 279.203 50.7535 278.75 53.0347C278.296 55.3158 277.176 57.4112 275.531 59.0558C273.887 60.7005 271.791 61.8205 269.51 62.2742C267.229 62.728 264.865 62.4951 262.716 61.6051C260.567 60.715 258.73 59.2078 257.438 57.2739C256.146 55.3401 255.456 53.0665 255.456 50.7406C255.458 47.6223 256.697 44.6321 258.902 42.4271C261.107 40.222 264.097 38.9826 267.216 38.981ZM240.454 63.8173C242.449 67.9249 245.356 71.5221 248.954 74.3339C252.552 77.1456 256.745 79.0974 261.213 80.04L272.619 138.486C268.305 140.545 264.547 143.606 261.656 147.413L177.399 103.32C180.073 96.8375 180.239 89.5922 177.867 82.9937L240.454 63.8173ZM149.625 80.6477C151.951 80.6477 154.224 81.3374 156.158 82.6296C158.092 83.9217 159.599 85.7583 160.489 87.9071C161.38 90.0559 161.612 92.4203 161.159 94.7015C160.705 96.9826 159.585 99.078 157.94 100.723C156.296 102.367 154.2 103.487 151.919 103.941C149.638 104.395 147.274 104.162 145.125 103.272C142.976 102.382 141.139 100.874 139.847 98.9406C138.555 97.0067 137.865 94.7331 137.865 92.4073C137.867 89.2889 139.106 86.2987 141.311 84.0937C143.516 81.8886 146.507 80.6492 149.625 80.6477ZM148.777 122.228L168.587 192.895C162.868 195.155 157.981 199.117 154.585 204.243L75.4433 184.072L75.4929 183.577C75.4611 176.767 73.0832 170.177 68.76 164.917L127.583 112.439C130.272 115.418 133.536 117.821 137.178 119.503C140.821 121.185 144.766 122.112 148.777 122.228ZM48.6717 280.296C48.6717 282.622 47.982 284.896 46.6899 286.829C45.3977 288.763 43.5612 290.27 41.4124 291.16C39.2637 292.051 36.8993 292.283 34.6182 291.83C32.3371 291.376 30.2418 290.256 28.5972 288.611C26.9526 286.967 25.8326 284.871 25.3789 282.59C24.9251 280.309 25.158 277.945 26.0481 275.796C26.9381 273.647 28.4453 271.811 30.3791 270.519C32.313 269.227 34.5865 268.537 36.9123 268.537C40.0306 268.538 43.0208 269.778 45.2257 271.983C47.4307 274.188 48.6701 277.178 48.6717 280.296ZM43.0361 251.031L46.9767 213.344C52.7542 213.073 58.3287 211.129 63.0225 207.75C67.7163 204.37 71.3273 199.7 73.4167 194.307L150.448 213.954C149.457 217.886 149.36 221.991 150.163 225.966L59.6965 261.162C55.4353 256.013 49.568 252.446 43.0361 251.031ZM45.5856 171.818C47.9115 171.818 50.1851 172.507 52.119 173.799C54.0528 175.092 55.5601 176.928 56.4502 179.077C57.3403 181.226 57.5732 183.59 57.1195 185.871C56.6658 188.152 55.5458 190.248 53.9012 191.892C52.2566 193.537 50.1613 194.657 47.8801 195.111C45.599 195.565 43.2345 195.332 41.0857 194.442C38.9369 193.552 37.1003 192.044 35.8081 190.111C34.516 188.177 33.8263 185.903 33.8263 183.577C33.8278 180.459 35.0672 177.469 37.2721 175.264C39.4771 173.059 42.4673 171.819 45.5856 171.818ZM62.5979 295.354C64.8799 291.637 66.2805 287.447 66.6922 283.105C67.1038 278.763 66.5157 274.384 64.9729 270.304L153.846 235.715C155.86 239.154 158.54 242.155 161.73 244.542C164.92 246.929 168.555 248.654 172.422 249.616L133.572 303.43C131.625 297.647 127.948 292.601 123.039 288.977C118.13 285.353 112.225 283.326 106.125 283.169C100.025 283.013 94.024 284.735 88.9354 288.103C83.8467 291.471 79.9161 296.321 77.6758 301.997L62.5979 295.354ZM105.4 324.825C103.074 324.825 100.801 324.135 98.8669 322.843C96.9331 321.551 95.4259 319.715 94.5359 317.566C93.6459 315.417 93.4131 313.053 93.8668 310.772C94.3206 308.49 95.4406 306.395 97.0852 304.751C98.7298 303.106 100.825 301.986 103.106 301.532C105.387 301.079 107.752 301.312 109.9 302.202C112.049 303.092 113.886 304.599 115.178 306.533C116.47 308.466 117.16 310.74 117.16 313.066C117.158 316.184 115.919 319.174 113.714 321.379C111.509 323.584 108.518 324.824 105.4 324.825ZM176.383 255.958L180.104 281.003C173.849 282.386 168.204 285.743 164.002 290.578C159.8 295.413 157.263 301.471 156.766 307.857H142.183L176.383 255.958ZM299.629 306.679C297.303 306.679 295.03 305.989 293.096 304.697C291.162 303.404 289.655 301.568 288.765 299.419C287.875 297.27 287.642 294.906 288.096 292.625C288.549 290.344 289.669 288.248 291.314 286.604C292.959 284.959 295.054 283.839 297.335 283.385C299.616 282.932 301.981 283.164 304.13 284.055C306.278 284.945 308.115 286.452 309.407 288.386C310.699 290.32 311.389 292.593 311.389 294.919C311.387 298.037 310.147 301.027 307.942 303.232C305.737 305.437 302.747 306.677 299.629 306.679ZM432.387 427.421C430.061 427.421 427.788 426.732 425.854 425.439C423.92 424.147 422.413 422.311 421.523 420.162C420.633 418.013 420.4 415.649 420.854 413.368C421.307 411.087 422.427 408.991 424.072 407.347C425.717 405.702 427.812 404.582 430.093 404.128C432.374 403.675 434.738 403.908 436.887 404.798C439.036 405.688 440.873 407.195 442.165 409.129C443.457 411.062 444.146 413.336 444.146 415.662C444.145 418.78 442.905 421.77 440.7 423.975C438.495 426.179 435.505 427.42 432.387 427.421ZM432.387 385.755C428.418 385.756 424.488 386.552 420.83 388.093C417.172 389.635 413.859 391.892 411.086 394.732C388.9 360.756 358.794 332.677 323.355 312.91C325.096 310.639 326.499 308.128 327.521 305.455L390.5 320.516C392.117 326.771 395.72 332.334 400.767 336.368C405.814 340.402 412.034 342.69 418.493 342.888C421.081 358.15 426.561 372.777 434.64 385.982C433.884 385.924 433.159 385.755 432.387 385.755ZM419.352 324.826C417.027 324.826 414.753 324.137 412.819 322.844C410.885 321.552 409.378 319.716 408.488 317.567C407.598 315.418 407.365 313.054 407.819 310.773C408.273 308.492 409.393 306.396 411.037 304.752C412.682 303.107 414.777 301.987 417.058 301.533C419.339 301.08 421.704 301.313 423.852 302.203C426.001 303.093 427.838 304.6 429.13 306.534C430.422 308.467 431.112 310.741 431.112 313.067C431.11 316.185 429.87 319.175 427.665 321.38C425.46 323.584 422.47 324.825 419.352 324.826ZM428.602 284.775C422.759 282.664 416.369 282.621 410.498 284.652L384.468 244.479C389.734 240.517 393.541 234.925 395.297 228.573H420.553C421.815 233.134 424.143 237.33 427.344 240.816C430.544 244.301 434.527 246.978 438.964 248.624L428.602 284.775Z" fill="#076EFF"/>
</svg>
