<svg width="500" height="500" viewBox="0 0 500 500" fill="none" xmlns="http://www.w3.org/2000/svg">
<path d="M400.037 304.897L400.208 304.829C394.976 264.68 327.679 158.725 327.679 158.725C279.344 97.0515 249.545 0 249.545 0C259.829 31.4405 113.079 269.562 113.079 269.562L113.122 269.57C100.736 291.928 93.633 317.611 93.633 344.961C93.633 419.026 145.414 480.759 214.701 496.602L214.709 496.687C214.709 496.687 244.959 500.897 260.076 499.825C260.127 499.978 281.972 497.597 292.265 494.672C292.291 494.672 292.308 494.672 292.325 494.663C357.589 476.073 405.431 416.177 405.431 344.961C405.439 331.099 403.457 317.713 400.037 304.897ZM222.85 427.896L251.169 330.989H184.825L239.847 191.73L294.171 192.496L257.643 291.937H314.281L222.85 427.896Z" fill="#076EFF"/>
</svg>
