<svg width="323" height="500" viewBox="0 0 323 500" fill="none" xmlns="http://www.w3.org/2000/svg">
<path d="M322.824 249.85C322.533 212.875 297.916 177.283 255.283 152.183L227.233 166.208L241.933 174.866C244.633 176.45 247.074 178.15 249.583 179.825H228.333C224.843 179.825 221.496 181.211 219.028 183.679C216.561 186.146 215.174 189.493 215.174 192.983C215.174 196.473 216.561 199.82 219.028 202.287C221.496 204.755 224.843 206.141 228.333 206.141H279.083C286.395 214.954 291.686 225.263 294.583 236.341L201.824 236.591C198.341 236.602 195.004 237.993 192.544 240.46C190.084 242.926 188.702 246.266 188.699 249.75C188.7 251.481 189.043 253.195 189.707 254.794C190.371 256.392 191.344 257.844 192.57 259.066C193.797 260.289 195.252 261.257 196.852 261.916C198.453 262.575 200.168 262.912 201.899 262.908L295.091 262.658C292.482 274.079 287.294 284.751 279.924 293.858H237.049C233.56 293.858 230.213 295.244 227.745 297.712C225.277 300.18 223.891 303.527 223.891 307.016C223.891 310.506 225.277 313.853 227.745 316.321C230.213 318.788 233.56 320.175 237.049 320.175H251.174C248.566 321.95 246.016 323.75 243.199 325.441L233.149 331.466L256.733 348.008C299.008 322.65 323.116 286.875 322.824 249.85Z" fill="#076EFF"/>
<path d="M22.341 419.783C14.6738 430.025 8.55293 441.337 4.17435 453.358C0.922244 464.206 -0.44481 475.532 0.132678 486.842C0.132678 490.331 1.519 493.678 3.98667 496.146C6.45433 498.614 9.80121 500 13.291 500C16.7808 500 20.1277 498.614 22.5954 496.146C25.063 493.678 26.4493 490.331 26.4493 486.842C26.269 475.707 28.4236 464.659 32.7743 454.408C33.8855 451.931 35.0882 449.483 36.3827 447.067C70.3743 447.217 156.383 447.308 199.033 447.35C200.299 449.717 201.472 452.108 202.549 454.525C206.861 464.745 208.995 475.751 208.816 486.842C208.816 490.331 210.202 493.678 212.67 496.146C215.138 498.614 218.485 500 221.974 500C225.464 500 228.811 498.614 231.279 496.146C233.746 493.678 235.133 490.331 235.133 486.842C234.933 438.592 203.724 399.775 163.541 375.683L143.174 363.5L169.008 348.008L145.424 331.467L117.558 348.183L79.7243 325.442C76.916 323.775 74.3577 321.95 71.7493 320.175H99.5577C103.047 320.175 106.394 318.789 108.862 316.321C111.33 313.853 112.716 310.506 112.716 307.017C112.716 303.527 111.33 300.18 108.862 297.712C106.394 295.245 103.047 293.858 99.5577 293.858H43.0077C35.7374 284.86 30.5903 274.338 27.9493 263.075L64.416 262.983C67.9058 262.973 71.2487 261.578 73.7094 259.103C76.17 256.628 77.5468 253.277 77.5368 249.787C77.5269 246.298 76.131 242.955 73.6563 240.494C71.1816 238.033 67.8308 236.657 64.341 236.667L28.2327 236.758C31.0992 225.519 36.434 215.06 43.8493 206.142H90.8493C92.5773 206.142 94.2884 205.801 95.8848 205.14C97.4813 204.479 98.9318 203.51 100.154 202.288C101.376 201.066 102.345 199.615 103.006 198.019C103.667 196.422 104.008 194.711 104.008 192.983C104.008 191.255 103.667 189.544 103.006 187.948C102.345 186.351 101.376 184.901 100.154 183.679C98.9318 182.457 97.4813 181.488 95.8848 180.827C94.2884 180.165 92.5773 179.825 90.8493 179.825H73.3493C75.8493 178.158 78.3077 176.45 81.0077 174.867L117.608 153.333L139.516 166.217L167.558 152.192L143.549 138.025L165.574 125.058C186.035 113.451 203.705 97.5021 217.341 78.3333C230.006 59.0319 236.24 36.2183 235.149 13.1583C235.149 9.66853 233.763 6.32165 231.295 3.85399C228.828 1.38632 225.481 0 221.991 0C218.501 0 215.154 1.38632 212.687 3.85399C210.219 6.32165 208.833 9.66853 208.833 13.1583V26.85C208.05 35.8171 205.605 44.5603 201.624 52.6333H33.6327C29.6518 44.5603 27.2074 35.8171 26.4243 26.85V13.1583C26.4243 9.66853 25.038 6.32165 22.5704 3.85399C20.1027 1.38632 16.7558 0 13.266 0C9.77621 0 6.42933 1.38632 3.96166 3.85399C1.494 6.32165 0.107676 9.66853 0.107676 13.1583C-0.894789 35.8877 5.12198 58.3749 17.341 77.5667C30.9456 97.1591 48.8268 113.402 69.6327 125.067L91.6577 138.033L67.6493 152.2C25.016 177.292 0.391014 212.892 0.0993474 249.867C-0.192319 286.842 23.8993 322.667 66.191 348.025L92.0243 363.517L71.7077 375.7C52.4572 386.928 35.6673 401.921 22.341 419.783ZM83.0077 102.417C71.8555 95.9514 61.5916 88.063 52.4743 78.95H182.766C173.646 88.0631 163.379 95.9515 152.224 102.417L117.608 122.792L83.0077 102.417ZM117.541 378.9L150.041 398.258C160.721 404.614 170.571 412.269 179.366 421.05H55.916C64.711 412.269 74.5612 404.614 85.241 398.258L117.541 378.9Z" fill="#076EFF"/>
</svg>
