<svg width="529" height="551" viewBox="0 0 529 551" fill="none" xmlns="http://www.w3.org/2000/svg">
<path d="M504.961 85.4765C503.893 82.7192 501.136 81.8297 499.624 81.385L499.09 81.2071C498.379 80.9403 497.667 80.8513 496.867 80.8513C496.6 80.8513 496.244 80.8513 495.71 80.9403H450.615L472.496 11.385L472.674 10.8513C474.186 6.49301 473.296 3.20203 470.094 1.15629C468.849 0.444727 467.604 0 466.27 0C462.979 0 461.022 2.31258 459.954 3.46887L459.599 3.82465C445.278 19.479 431.047 35.1334 416.727 50.7878L392 77.7382C381.771 88.9454 371.543 100.152 361.314 111.36C359.535 113.227 358.379 116.696 359.357 119.632C360.425 122.567 363.271 123.456 364.961 123.99L365.494 124.168C366.206 124.435 366.918 124.524 367.718 124.524C368.074 124.524 368.341 124.524 368.963 124.435H410.323L393.69 189.009C392.712 192.834 391.555 197.192 390.666 201.55C390.043 204.485 391.822 207.687 393.957 209.022C394.935 209.644 396.092 210 397.337 210C398.404 210 399.56 209.733 400.806 209.288C402.585 208.666 403.563 207.421 404.186 206.531L491.886 106.734C495.71 102.376 499.535 98.0178 503.271 93.5705C504.961 91.6137 506.028 88.2338 504.961 85.4765Z" fill="#076EFF"/>
<path d="M511.315 193.889C523.231 222.548 529.123 254.31 528.998 287.493C528.449 433.688 409.702 551.547 263.507 550.998C117.312 550.449 -0.546926 431.702 0.00190907 285.507C0.550744 139.312 119.298 21.453 265.493 22.0019C298.676 22.1264 330.393 28.2569 359.686 39.6683C346.895 52.124 338.425 66.2792 333.08 81.1674C311.705 74.1139 289.358 70.1827 265.312 70.0924C207.918 69.877 152.788 92.4703 112.051 132.902C71.3146 173.334 48.308 228.293 48.0925 285.688C47.877 343.082 70.4704 398.212 110.902 438.949C151.334 479.685 206.293 502.692 263.688 502.908C321.082 503.123 376.212 480.53 416.949 440.098C457.686 399.666 480.692 344.707 480.908 287.312C480.998 263.267 477.235 240.891 470.342 219.464C485.27 214.23 499.488 205.867 511.315 193.889ZM384.726 286.951C384.607 318.837 371.825 349.37 349.194 371.832C326.562 394.294 295.935 406.846 264.049 406.726C232.163 406.607 201.63 393.825 179.168 371.194C156.706 348.562 144.154 317.935 144.274 286.049C144.393 254.163 157.175 223.63 179.806 201.168C202.438 178.706 233.065 166.154 264.951 166.274C296.837 166.393 327.37 179.175 349.832 201.806C372.294 224.438 384.846 255.065 384.726 286.951Z" fill="#076EFF"/>
</svg>
