<svg width="1908" height="989" viewBox="0 0 1908 989" fill="none" xmlns="http://www.w3.org/2000/svg">
<path d="M1164.57 0.26227C1164.17 0.66227 1144.7 1.06227 1121.24 1.1956C1094.57 1.32894 1073.24 2.12894 1064.04 3.1956C1051.5 4.7956 1044.97 5.46227 1029.37 6.92894C1023.77 7.5956 1012.97 9.32894 1004.7 11.0623C999.903 12.1289 991.236 13.8623 985.37 15.0623C979.503 16.2623 970.836 17.9956 966.036 19.0623C961.236 19.9956 955.636 21.1956 953.37 21.5956C931.103 25.5956 901.236 33.5956 844.703 50.7956C824.97 56.9289 792.303 68.7956 778.703 75.0623C776.57 75.9956 771.236 77.8623 766.97 79.0623C762.836 80.2623 752.836 83.9956 744.97 87.3289C737.103 90.6623 728.303 94.1289 725.37 95.0623C722.436 96.1289 714.97 99.0623 708.703 101.729C702.436 104.396 695.236 107.462 692.57 108.396C689.903 109.329 686.57 110.796 685.236 111.596C683.77 112.262 676.703 115.729 669.37 119.196C662.036 122.529 651.37 127.729 645.636 130.529C639.903 133.462 634.17 135.729 632.703 135.729C631.37 135.729 629.77 136.262 629.37 137.062C628.97 137.729 627.503 138.396 626.17 138.396C623.503 138.396 608.703 143.062 602.703 145.729C600.57 146.662 591.236 150.529 582.036 154.129C565.503 160.796 555.903 165.062 550.703 167.996C549.236 168.796 544.303 171.462 539.636 173.996C534.97 176.396 527.37 180.796 522.57 183.729C517.636 186.662 513.37 189.062 512.97 189.062C512.57 189.062 509.503 190.796 506.17 192.929C502.836 194.929 494.703 199.596 488.17 203.196C481.636 206.796 472.97 211.729 468.836 214.129C464.703 216.396 457.77 220.262 453.37 222.529C449.103 224.796 438.836 231.329 430.703 236.929C422.703 242.662 413.103 248.929 409.37 251.062C389.903 262.262 345.37 293.862 332.703 305.596C328.57 309.329 319.903 317.196 313.37 323.062C292.17 342.129 279.236 354.929 269.77 365.729C264.703 371.596 259.77 377.329 258.836 378.396C257.903 379.462 255.236 383.196 252.97 386.662C250.57 389.996 247.903 393.596 246.97 394.662C244.036 397.596 222.836 425.329 218.703 431.729C216.57 435.062 212.036 441.329 208.703 445.729C205.37 450.129 200.303 457.329 197.503 461.729C194.703 466.129 190.836 471.996 188.836 474.796C185.37 479.862 178.836 490.129 176.17 495.062C175.37 496.529 171.103 503.062 166.703 509.729C155.236 527.329 153.503 529.996 146.97 541.729C143.77 547.596 140.303 554.796 139.37 557.729C138.436 560.662 137.236 563.596 136.703 564.396C134.703 567.462 119.77 606.262 111.903 629.062C110.303 633.862 106.703 645.862 104.036 655.729C101.37 665.596 98.5695 675.196 97.9029 677.062C97.2362 678.929 96.4362 683.729 96.1695 687.862C95.7695 694.396 92.7029 703.329 88.7029 709.062C88.0362 710.129 85.9029 714.396 84.0362 718.396C82.3029 722.396 78.4362 728.796 75.7695 732.529C64.7029 747.329 55.5029 759.196 52.1695 763.062C50.1695 765.196 46.5695 769.996 44.1695 773.729C41.6362 777.329 36.0362 785.062 31.6362 790.796C27.1029 796.529 22.8362 803.462 21.9029 806.129C21.1029 808.796 19.2362 812.662 17.9029 814.662C11.9029 823.196 -0.76381 857.996 0.0361896 863.596C0.302856 865.462 0.969523 873.062 1.23619 880.396C3.10286 916.396 6.56952 934.529 15.5029 957.729C22.7029 976.129 26.3029 982.529 31.1029 985.862C36.4362 989.462 44.7029 989.729 52.7029 986.396C61.5029 982.796 78.4362 977.729 99.7695 972.396C130.836 964.796 139.103 960.796 155.77 945.729C173.236 930.129 180.303 916.796 184.836 891.196C186.303 883.062 188.57 872.529 190.036 867.729C191.503 862.929 193.236 852.529 194.036 844.662C194.836 836.662 196.036 827.329 196.836 823.996C197.503 820.529 198.436 815.862 198.836 813.729C199.903 807.862 208.17 781.196 214.303 763.729C221.37 743.729 230.17 726.662 237.903 718.396C239.636 716.529 245.37 709.596 250.703 703.062C260.036 691.329 264.703 686.662 273.903 679.729C276.303 677.862 280.436 674.662 282.836 672.529C287.503 668.662 299.103 660.529 319.37 647.062C325.636 642.796 335.236 636.396 340.703 632.662C374.97 609.596 384.303 603.729 407.503 591.196C421.636 583.462 438.303 575.062 444.57 572.396C450.836 569.729 463.236 564.529 472.036 560.796C493.503 551.729 494.836 551.196 503.77 547.196C508.036 545.329 511.636 543.729 512.036 543.729C512.303 543.729 517.503 541.462 523.636 538.529C544.436 528.796 548.036 527.329 581.37 513.862C595.37 508.262 607.636 503.729 608.836 503.729C609.903 503.729 611.37 503.196 612.17 502.529C612.836 501.996 626.303 497.062 642.036 491.729C657.77 486.396 673.37 480.929 676.57 479.462C684.97 475.729 703.236 470.396 708.17 470.396C710.436 470.396 712.703 469.996 713.103 469.462C717.236 465.329 742.036 461.729 743.903 464.929C744.836 466.396 743.903 466.396 780.703 461.862C795.77 459.996 811.903 457.596 816.703 456.529C827.903 453.996 833.236 453.329 848.703 452.396C855.636 451.996 865.236 451.329 870.036 450.929C874.836 450.529 903.37 449.996 933.37 449.729C984.436 449.196 995.903 448.796 1018.04 447.062C1022.84 446.796 1040.17 446.129 1056.7 445.596C1073.24 445.196 1089.1 444.662 1092.04 444.396C1094.97 444.262 1120.17 443.596 1148.04 443.196C1235.9 441.596 1249.1 441.062 1267.37 438.129C1276.17 436.796 1284.3 435.596 1319.37 430.529C1330.04 428.929 1342.3 427.196 1346.7 426.529C1351.1 425.729 1358.04 424.929 1362.04 424.529C1377.1 423.062 1420.44 417.329 1421.5 416.662C1422.17 416.262 1428.97 415.596 1436.7 415.062C1444.44 414.529 1451.1 413.862 1451.64 413.596C1452.17 413.329 1457.1 412.262 1462.57 411.329C1471.9 409.729 1472.7 409.729 1473.37 411.862C1474.3 414.796 1483.64 416.396 1490.97 415.062C1498.97 413.729 1506.57 409.462 1509.1 405.062C1510.84 402.129 1512.57 401.062 1515.1 401.062C1519.37 401.062 1538.04 396.129 1540.04 394.396C1541.37 393.196 1553.5 388.396 1567.24 383.596C1571.24 382.262 1577.64 379.596 1581.5 377.729C1585.37 375.862 1589.1 374.396 1589.9 374.396C1591.1 374.396 1602.04 368.529 1607.37 365.062C1608.44 364.262 1610.3 363.329 1611.37 362.796C1613.1 361.996 1631.64 349.062 1638.7 343.729C1640.17 342.662 1644.97 338.129 1649.37 333.596C1657.64 325.196 1659.9 324.129 1676.7 320.529C1681.5 319.462 1688.7 317.596 1692.7 316.396C1703.1 313.196 1721.5 308.796 1742.7 304.262C1752.97 302.129 1773.64 298.529 1774.7 298.662C1775.5 298.796 1780.3 298.396 1785.64 297.862C1791.64 297.196 1796.84 297.329 1799.64 298.262C1802.04 299.062 1808.57 301.196 1814.04 302.929C1819.5 304.662 1825.9 306.796 1828.04 307.729C1830.3 308.662 1833.24 309.862 1834.7 310.529C1836.17 311.062 1842.44 313.596 1848.7 316.262C1866.17 323.462 1875.64 326.262 1884.57 326.929C1891.5 327.329 1893.9 326.929 1899.77 323.862L1906.7 320.396L1907.1 311.996C1907.64 301.596 1907.5 301.329 1890.04 281.596C1880.04 270.262 1872.97 260.529 1855.9 234.796C1853.37 230.929 1848.7 225.862 1845.5 223.462C1842.17 221.062 1835.5 215.996 1830.57 212.396C1825.77 208.662 1820.3 204.929 1818.57 203.996C1816.84 203.062 1806.17 193.062 1794.84 181.862C1775.9 163.062 1768.17 157.062 1762.97 157.062C1761.9 157.062 1759.5 155.062 1757.64 152.662C1747.64 139.462 1728.57 123.196 1704.04 106.796C1690.04 97.4623 1681.64 93.0623 1671.37 89.7289C1667.37 88.3956 1661.64 86.1289 1658.7 84.6623C1655.77 83.1956 1649.77 80.9289 1645.37 79.5956C1640.97 78.3956 1632.04 75.0623 1625.37 72.3956C1618.84 69.7289 1612.44 67.3289 1611.37 67.0623C1608.04 66.1289 1584.17 58.2623 1581.37 57.0623C1578.17 55.7289 1552.44 47.9956 1546.04 46.3956C1543.5 45.7289 1535.37 43.7289 1528.04 41.7289C1520.7 39.8623 1512.97 37.8623 1510.7 37.4623C1508.57 37.0623 1505.64 36.2623 1504.44 35.5956C1503.1 34.9289 1502.04 34.6623 1502.04 34.9289C1502.04 35.3289 1500.44 35.0623 1498.44 34.1289C1495.1 32.9289 1491.37 31.8623 1480.7 29.5956C1478.84 29.3289 1473.77 28.1289 1469.37 26.9289C1464.97 25.8623 1456.57 24.1289 1450.7 23.0623C1444.84 21.9956 1438.3 20.7956 1436.04 20.3956C1433.9 19.8623 1424.3 18.1289 1414.7 16.3956C1405.24 14.5289 1394.7 12.5289 1391.37 11.8623C1386.04 10.7956 1379.64 9.86227 1366.7 8.3956C1334.3 4.66227 1324.57 3.72894 1312.44 3.1956C1302.84 2.7956 1298.04 3.06227 1297.77 3.9956C1297.24 5.46227 1292.84 5.5956 1285.37 4.3956C1283.24 4.12894 1272.7 3.46227 1262.04 3.06227C1251.37 2.66227 1240.57 1.9956 1238.04 1.5956C1231.37 0.66227 1165.37 -0.53773 1164.57 0.26227Z" fill="#076EFF"/>
</svg>
