<svg width="64" height="52" viewBox="0 0 64 52" fill="none" xmlns="http://www.w3.org/2000/svg">
<path d="M22.2 17.5C21.6 17.3 21 16.9 20.5 16.5L18 20.8C18.6 21 19.2 21.4 19.7 21.8L22.2 17.5Z" fill="#076EFF"/>
<path d="M41.8 17.5L44.3 21.8C44.8 21.4 45.4 21 46 20.8L43.5 16.5C43 17 42.4 17.3 41.8 17.5Z" fill="#076EFF"/>
<path d="M46 31.2002C45.4 31.0002 44.8 30.6002 44.3 30.2002L41.8 34.5002C42.4 34.7002 43 35.1002 43.5 35.5002L46 31.2002Z" fill="#076EFF"/>
<path d="M34.5 13.3003C34.4 13.0003 34.4 12.6003 34.4 12.3003C34.4 12.0003 34.4 11.6003 34.5 11.3003H29.6C29.7 11.6003 29.7 12.0003 29.7 12.3003C29.7 12.6003 29.7 13.0003 29.6 13.3003H34.5Z" fill="#076EFF"/>
<path d="M22.2 34.5002L19.7 30.2002C19.2 30.6002 18.6 31.0002 18 31.2002L20.5 35.5002C21 35.1002 21.6 34.7002 22.2 34.5002Z" fill="#076EFF"/>
<path d="M29.5 38.7002C29.6 39.0002 29.6 39.4002 29.6 39.7002C29.6 40.0002 29.6 40.4002 29.5 40.7002H34.4C34.3 40.4002 34.3 40.0002 34.3 39.7002C34.3 39.4002 34.3 39.0002 34.4 38.7002H29.5Z" fill="#076EFF"/>
<path d="M6.9 25C6.5 23.5 5.1 22.5 3.5 22.5C1.6 22.5 0 24 0 26C0 28 1.6 29.5 3.5 29.5C5.1 29.5 6.5 28.4 6.9 26.9H10.7C10.6 26.6 10.6 26.2 10.6 25.9C10.6 25.6 10.6 25.2 10.7 24.9H6.9V25ZM3.5 27.6C2.7 27.6 2 26.9 2 26C2 25.1 2.7 24.4 3.5 24.4C4.3 24.4 5 25.1 5 25.9C5.1 26.9 4.4 27.6 3.5 27.6Z" fill="#076EFF"/>
<path d="M19.5 42.8999L17.1 45.2999C16.6 44.9999 16 44.8999 15.4 44.8999C13.4 44.8999 11.9 46.4999 11.9 48.3999C11.9 50.2999 13.5 51.8999 15.4 51.8999C17.4 51.8999 19 50.2999 19 48.3999C19 47.7999 18.8 47.1999 18.6 46.6999L21 44.2999C20.4 43.8999 19.9 43.3999 19.5 42.8999ZM15.4 49.8999C14.5 49.8999 13.9 49.1999 13.9 48.3999C13.9 47.5999 14.6 46.8999 15.4 46.8999C15.8 46.8999 16.2 47.0999 16.5 47.2999C16.8 47.5999 16.9 47.9999 16.9 48.3999C17 49.1999 16.3 49.8999 15.4 49.8999Z" fill="#076EFF"/>
<path d="M39.9 36.2002C37.9 36.2002 36.4 37.8002 36.4 39.7002C36.4 41.7002 38 43.3002 39.9 43.3002C41.8 43.3002 43.4 41.7002 43.4 39.7002C43.5 37.8002 41.9 36.2002 39.9 36.2002ZM39.9 41.3002C39 41.3002 38.4 40.6002 38.4 39.7002C38.4 38.8002 39.1 38.2002 39.9 38.2002C40.7 38.2002 41.4 38.9002 41.4 39.7002C41.5 40.6002 40.8 41.3002 39.9 41.3002Z" fill="#076EFF"/>
<path d="M24.1 36.2002C22.1 36.2002 20.5 37.8002 20.5 39.7002C20.5 41.7002 22.1 43.3002 24.1 43.3002C26.1 43.3002 27.6 41.7002 27.6 39.7002C27.6 37.8002 26 36.2002 24.1 36.2002ZM24.1 41.3002C23.2 41.3002 22.5 40.6002 22.5 39.7002C22.5 38.8002 23.2 38.2002 24.1 38.2002C25 38.2002 25.6 38.9002 25.6 39.7002C25.6 40.6002 24.9 41.3002 24.1 41.3002Z" fill="#076EFF"/>
<path d="M39.9 15.8003C41.9 15.8003 43.4 14.2003 43.4 12.3003C43.4 10.4003 41.8 8.80029 39.9 8.80029C38 8.80029 36.4 10.4003 36.4 12.3003C36.4 14.2003 38 15.8003 39.9 15.8003ZM39.9 10.7003C40.8 10.7003 41.4 11.4003 41.4 12.2003C41.4 13.0003 40.7 13.7003 39.9 13.7003C39.1 13.7003 38.4 13.0003 38.4 12.2003C38.4 11.4003 39.1 10.7003 39.9 10.7003Z" fill="#076EFF"/>
<path d="M51.4 25.9999C51.4 23.9999 49.8 22.3999 47.9 22.3999C45.9 22.3999 44.3 23.9999 44.3 25.9999C44.3 27.9999 45.9 29.4999 47.9 29.4999C49.8 29.5999 51.4 27.9999 51.4 25.9999ZM46.3 25.9999C46.3 25.0999 47 24.3999 47.9 24.3999C48.8 24.3999 49.4 25.0999 49.4 25.9999C49.4 26.8999 48.7 27.4999 47.9 27.4999C47 27.5999 46.3 26.8999 46.3 25.9999Z" fill="#076EFF"/>
<path d="M60.5 22.5C58.9 22.5 57.5 23.6 57.1 25H53.3C53.4 25.3 53.4 25.7 53.4 26C53.4 26.3 53.4 26.7 53.3 27H57.1C57.5 28.5 58.9 29.6 60.5 29.6C62.5 29.6 64 28 64 26.1C64 24 62.4 22.5 60.5 22.5ZM60.5 27.6C59.7 27.6 59 26.9 59 26.1C59 25.3 59.7 24.6 60.5 24.6C61.4 24.6 62 25.3 62 26.2C62 26.9 61.3 27.6 60.5 27.6Z" fill="#076EFF"/>
<path d="M48.6 44.8003C48 44.8003 47.4 45.0003 46.9 45.2003L44.5 42.8003C44.1 43.4003 43.6 43.8003 43.1 44.2003L45.5 46.6003C45.2 47.1003 45.1 47.7003 45.1 48.3003C45.1 50.3003 46.7 51.8003 48.6 51.8003C50.6 51.8003 52.1 50.2003 52.1 48.3003C52.1 46.4003 50.5 44.8003 48.6 44.8003ZM48.6 49.9003C47.7 49.9003 47.1 49.2003 47.1 48.4003C47.1 48.0003 47.3 47.6003 47.5 47.3003C47.8 47.0003 48.2 46.9003 48.6 46.9003C49.5 46.9003 50.1 47.6003 50.1 48.4003C50.1 49.2003 49.4 49.9003 48.6 49.9003Z" fill="#076EFF"/>
<path d="M12.6 25.9999C12.6 27.9999 14.2 29.4999 16.1 29.4999C18.1 29.4999 19.6 27.8999 19.6 25.9999C19.6 23.9999 18 22.3999 16.1 22.3999C14.2 22.4999 12.6 23.9999 12.6 25.9999ZM17.7 25.9999C17.7 26.8999 17 27.4999 16.2 27.4999C15.4 27.4999 14.7 26.7999 14.7 25.9999C14.7 25.0999 15.4 24.3999 16.2 24.3999C17 24.3999 17.7 25.0999 17.7 25.9999Z" fill="#076EFF"/>
<path d="M24.1 15.8003C26.1 15.8003 27.6 14.2003 27.6 12.3003C27.6 10.4003 26 8.80029 24.1 8.80029C22.1 8.80029 20.5 10.4003 20.5 12.3003C20.5 14.2003 22.1 15.8003 24.1 15.8003ZM24.1 10.7003C25 10.7003 25.6 11.4003 25.6 12.2003C25.6 13.0003 24.9 13.7003 24.1 13.7003C23.2 13.7003 22.5 13.0003 22.5 12.2003C22.5 11.4003 23.2 10.7003 24.1 10.7003Z" fill="#076EFF"/>
<path d="M15.4 7.2002C16 7.2002 16.6 7.0002 17.1 6.8002L19.5 9.2002C19.9 8.7002 20.4 8.2002 20.9 7.8002L18.5 5.4002C18.8 4.9002 18.9 4.3002 18.9 3.7002C18.9 1.7002 17.3 0.200195 15.3 0.200195C13.3 0.200195 11.8 1.8002 11.8 3.7002C11.9 5.6002 13.5 7.2002 15.4 7.2002ZM15.4 2.1002C16.3 2.1002 17 2.8002 17 3.6002C17 4.0002 16.8 4.4002 16.6 4.7002C16.3 5.0002 15.9 5.1002 15.5 5.1002C14.6 5.1002 14 4.4002 14 3.6002C13.9 2.8002 14.6 2.1002 15.4 2.1002Z" fill="#076EFF"/>
<path d="M48.6 0.100098C46.6 0.100098 45.1 1.7001 45.1 3.6001C45.1 4.2001 45.3 4.8001 45.5 5.3001L43.1 7.7001C43.6 8.1001 44.1 8.6001 44.5 9.1001L46.9 6.7001C47.4 7.0001 48 7.1001 48.6 7.1001C50.6 7.1001 52.1 5.5001 52.1 3.6001C52.1 1.7001 50.5 0.100098 48.6 0.100098ZM48.6 5.2001C48.2 5.2001 47.8 5.0001 47.5 4.8001C47.2 4.5001 47.1 4.1001 47.1 3.7001C47.1 2.8001 47.8 2.2001 48.6 2.2001C49.4 2.2001 50.1 2.9001 50.1 3.7001C50.1 4.5001 49.4 5.2001 48.6 5.2001Z" fill="#076EFF"/>
<path d="M27.1 35.4001H36.8C37.2 35.4001 37.5 35.2001 37.7 34.9001L42.6 26.5001C42.8 26.2001 42.8 25.8001 42.6 25.5001L37.7 17.1001C37.5 16.8001 37.2 16.6001 36.8 16.6001H27.1C26.7 16.6001 26.4 16.8001 26.2 17.1001L21.3 25.5001C21.1 25.8001 21.1 26.2001 21.3 26.5001L26.2 34.9001C26.5 35.2001 26.8 35.4001 27.1 35.4001Z" fill="#076EFF"/>
</svg>
