<svg width="1316" height="977" viewBox="0 0 1316 977" fill="none" xmlns="http://www.w3.org/2000/svg">
<path d="M1316 690.5C1316 770.857 1021.4 836 658 836C294.597 836 0 770.857 0 690.5C0 610.143 294.597 545 658 545C1021.4 545 1316 610.143 1316 690.5Z" fill="#076EFF"/>
<path fill-rule="evenodd" clip-rule="evenodd" d="M201.994 913.562C318.345 939.797 479.573 956.113 658 956.113C836.427 956.113 997.655 939.797 1114.01 913.562C1172.26 900.426 1218.72 884.923 1250.37 868.049C1266.21 859.608 1277.85 851.075 1285.43 842.726C1292.95 834.435 1296 826.876 1296 820H1316C1316 833.298 1309.98 845.435 1300.24 856.167C1290.55 866.842 1276.74 876.659 1259.78 885.698C1225.85 903.786 1177.41 919.767 1118.4 933.072C1000.23 959.72 837.453 976.113 658 976.113C478.547 976.113 315.774 959.72 197.595 933.072C138.587 919.767 90.1484 903.786 56.2188 885.698C39.2622 876.659 25.4473 866.842 15.7599 856.167C6.02051 845.435 0 833.298 0 820H20C20 826.876 23.0457 834.435 30.5703 842.726C38.1467 851.075 49.7933 859.608 65.6273 868.049C97.2789 884.923 143.738 900.426 201.994 913.562Z" fill="#076EFF"/>
<path d="M1296 691H1316V820H1296V691Z" fill="#076EFF"/>
<path d="M0 691H20V820H0V691Z" fill="#076EFF"/>
<path d="M424.596 493.955C300.468 533.136 192.379 541.256 183.174 512.091C173.968 482.926 267.131 427.521 391.259 388.34C515.387 349.159 623.475 341.039 632.681 370.204C641.887 399.369 548.724 454.774 424.596 493.955Z" fill="#076EFF"/>
<path d="M1085.97 0.602295C1101.23 0.602295 1115.67 3.03128 1129.31 7.88924C1142.95 12.662 1155.01 20.2046 1165.49 30.5171C1176.06 40.8296 1184.32 54.2955 1190.29 70.9148C1196.34 87.4489 1199.41 107.477 1199.49 131C1199.58 152.477 1196.89 171.781 1191.44 188.912C1186.07 205.957 1178.36 220.489 1168.3 232.506C1158.33 244.523 1146.31 253.727 1132.25 260.119C1118.27 266.426 1102.68 269.58 1085.46 269.58C1066.11 269.58 1049.11 265.872 1034.45 258.457C1019.79 251.043 1008.12 241.071 999.423 228.543C990.73 216.014 985.659 202.08 984.21 186.739H1054.27C1055.97 194.665 1059.72 200.418 1065.52 203.997C1071.31 207.492 1077.96 209.239 1085.46 209.239C1100.46 209.239 1111.41 202.761 1118.32 189.807C1125.3 176.767 1128.84 159.381 1128.93 137.648H1127.39C1124.07 145.659 1119.04 152.52 1112.31 158.23C1105.57 163.94 1097.73 168.33 1088.78 171.398C1079.84 174.466 1070.38 176 1060.4 176C1044.64 176 1030.83 172.463 1018.98 165.389C1007.14 158.23 997.889 148.472 991.241 136.114C984.594 123.67 981.227 109.523 981.142 93.6705C981.057 75.0909 985.446 58.8125 994.31 44.8352C1003.17 30.858 1015.49 19.9915 1031.26 12.2358C1047.02 4.48013 1065.26 0.602295 1085.97 0.602295ZM1086.48 54.2955C1079.41 54.2955 1073.1 55.9148 1067.56 59.1534C1062.11 62.3921 1057.8 66.7813 1054.65 72.321C1051.58 77.8608 1050.09 84.125 1050.18 91.1137C1050.26 98.1023 1051.84 104.367 1054.91 109.906C1058.06 115.446 1062.32 119.835 1067.69 123.074C1073.14 126.313 1079.41 127.932 1086.48 127.932C1091.68 127.932 1096.5 127.037 1100.93 125.247C1105.36 123.372 1109.2 120.773 1112.43 117.449C1115.76 114.04 1118.32 110.119 1120.11 105.688C1121.98 101.17 1122.88 96.3125 1122.79 91.1137C1122.7 84.125 1121.09 77.8608 1117.93 72.321C1114.78 66.7813 1110.47 62.3921 1105.02 59.1534C1099.57 55.9148 1093.39 54.2955 1086.48 54.2955Z" fill="#076EFF"/>
<path d="M839.526 0.602295C854.782 0.602295 869.228 3.03128 882.864 7.88924C896.501 12.662 908.56 20.2046 919.043 30.5171C929.612 40.8296 937.879 54.2955 943.844 70.9148C949.896 87.4489 952.964 107.477 953.049 131C953.134 152.477 950.45 171.781 944.995 188.912C939.626 205.957 931.913 220.489 921.856 232.506C911.884 244.523 899.867 253.727 885.805 260.119C871.827 266.426 856.231 269.58 839.015 269.58C819.668 269.58 802.665 265.872 788.006 258.457C773.347 251.043 761.671 241.071 752.978 228.543C744.285 216.014 739.214 202.08 737.765 186.739H807.822C809.526 194.665 813.276 200.418 819.072 203.997C824.867 207.492 831.515 209.239 839.015 209.239C854.015 209.239 864.967 202.761 871.87 189.807C878.859 176.767 882.396 159.381 882.481 137.648H880.947C877.623 145.659 872.594 152.52 865.862 158.23C859.129 163.94 851.288 168.33 842.339 171.398C833.39 174.466 823.93 176 813.958 176C798.191 176 784.384 172.463 772.538 165.389C760.691 158.23 751.444 148.472 744.796 136.114C738.148 123.67 734.782 109.523 734.697 93.6705C734.611 75.0909 739.001 58.8125 747.864 44.8352C756.728 30.858 769.043 19.9915 784.81 12.2358C800.577 4.48013 818.816 0.602295 839.526 0.602295ZM840.038 54.2955C832.964 54.2955 826.657 55.9148 821.117 59.1534C815.663 62.3921 811.359 66.7813 808.205 72.321C805.137 77.8608 803.646 84.125 803.731 91.1137C803.816 98.1023 805.393 104.367 808.461 109.906C811.614 115.446 815.876 119.835 821.245 123.074C826.7 126.313 832.964 127.932 840.038 127.932C845.237 127.932 850.052 127.037 854.484 125.247C858.915 123.372 862.751 120.773 865.989 117.449C869.313 114.04 871.87 110.119 873.66 105.688C875.535 101.17 876.43 96.3125 876.344 91.1137C876.259 84.125 874.64 77.8608 871.487 72.321C868.333 66.7813 864.029 62.3921 858.575 59.1534C853.12 55.9148 846.941 54.2955 840.038 54.2955Z" fill="#076EFF"/>
<path d="M695.769 108.5V161.682H573.042V108.5H695.769Z" fill="#076EFF"/>
<path d="M308.539 266V4.18176H379.619V110.034H383.198L461.948 4.18176H544.789L456.323 120.773L546.834 266H461.948L403.141 167.818L379.619 198.5V266H308.539Z" fill="#076EFF"/>
<path d="M102.875 266V4.18176H173.955V208.727H279.807V266H102.875Z" fill="#076EFF"/>
</svg>
