<svg width="536" height="512" viewBox="0 0 536 512" fill="none" xmlns="http://www.w3.org/2000/svg">
<path d="M517.02 283.585C530.251 265.589 536.403 245.226 535.782 222.986C535.285 205.215 530.43 188.544 520.625 173.598C506.38 151.877 486.826 137.415 461.321 131.517C457.956 130.738 456.647 129.27 456.795 125.735C457.27 114.441 456.319 103.326 452.517 92.5169C441.452 61.0749 419.984 40.4879 388.009 31.4079C367.397 25.5539 346.822 27.0199 326.961 35.1689C323.161 36.7279 321.386 35.3839 318.842 33.0989C313.438 28.2449 307.98 23.3279 301.966 19.2979C287.259 9.44587 271.054 3.69187 253.308 1.66587C230.529 -0.93613 209.198 3.19387 188.976 13.5249C172.726 21.8279 159.587 33.8029 148.801 48.4929C147.667 50.0369 145.322 51.0369 143.345 51.5599C132.974 54.3039 122.099 55.6959 112.204 59.5969C67.312 77.2949 38.795 124.063 43.65 172.092C44.863 184.089 48.553 195.834 51.222 208.245C17.831 226.715 -1.33296 255.354 1.13404 295.418C3.61404 335.695 26.097 361.905 63.35 376.522C63.35 377.255 63.479 377.771 63.33 378.189C56.76 396.588 55.86 415.318 59.985 434.354C64.423 454.835 74.825 471.867 90.154 485.931C102.291 497.069 116.44 504.623 132.473 508.527C151.432 513.144 170.245 512.523 188.693 506.147C213.258 497.657 231.88 481.955 244.142 458.979C246.122 455.271 247.693 455.708 250.52 457.936C263.021 467.781 276.851 474.848 292.696 477.631C321.306 482.656 347.54 477.399 370.908 459.714C381.402 451.773 390.004 442.126 396.446 430.604C397.629 428.49 398.748 426.45 401.904 427.364C416.314 431.534 430.837 432.166 445.667 429.473C472.657 424.571 494.3 411.046 509.212 388.298C529.339 357.594 531.099 324.885 516.281 291.326C515.013 288.453 515.002 286.328 517.02 283.585ZM454.024 143.633C483.248 150.387 503.372 166.434 515.193 192.444C528.122 220.895 522.041 255.744 506.881 273.514C499.107 266.808 492.139 259.579 483.99 254.112C482.569 253.159 481.104 252.274 479.622 251.414C486.855 248.003 491.864 240.648 491.864 232.12C491.864 220.344 482.317 210.797 470.541 210.797C467.974 210.797 465.513 211.251 463.233 212.083C464.849 202.348 463.158 192.746 461.283 183.356C459.477 174.314 455.245 165.778 453.015 156.788C452.083 153.022 453.558 148.661 454.024 143.633ZM336.688 45.8949C372.236 34.0249 409.82 46.9209 430.546 78.1839C441.536 94.7599 445.008 113.045 443.076 132.571C442.926 134.092 442.268 135.564 441.667 137.695C429.34 122.535 415.383 111.549 399.904 104.307C405.349 100.587 408.925 94.3299 408.925 87.2379C408.925 75.8279 399.675 66.5779 388.265 66.5779C376.855 66.5779 367.606 75.8279 367.606 87.2379C367.606 89.9919 368.149 92.6189 369.127 95.0219C358.248 93.3209 346.797 92.9929 334.796 93.9429C334.796 85.6649 335.004 77.9099 334.73 70.1719C334.511 64.0109 333.928 57.8389 333.065 51.7339C332.597 48.4099 333.491 46.9619 336.688 45.8949ZM351.619 105.698C351.714 106.153 351.807 106.607 351.9 107.062C395.52 106.58 434.33 136.602 445.592 177.345C455.803 214.288 447.236 246.991 420.35 274.278C403.549 291.332 382.807 300.775 358.666 302.141C355.702 302.308 352.734 302.449 349.778 302.722C334.219 304.16 325.081 293.245 314.917 284.483C290.683 263.586 275.156 236.517 260.552 208.605C255.44 198.835 255.079 190.269 259.356 180.593C261.45 175.857 262.822 170.713 263.863 165.618C265.707 156.59 270.651 149.34 276.383 142.558C288.464 128.268 303.083 117.35 321.152 112.044C331.073 109.131 341.448 107.763 351.619 105.698ZM320.298 318.904C303.599 350.041 278.928 373.392 249.1 391.61C241.297 396.378 233.158 400.691 224.836 404.477C221.495 405.998 217.102 406.448 213.446 405.835C194.989 402.738 177.598 396.671 162.381 385.386C153.906 379.103 146.77 371.524 141.338 362.452C140.776 361.515 140.817 359.659 141.377 358.692C148.797 345.892 154.453 332.327 158.033 318.029C160.908 306.549 163.212 294.882 164.998 283.182C166.547 273.044 166.904 262.727 168.078 252.524C168.255 250.987 169.7 249.101 171.091 248.274C187.689 238.414 204.367 228.685 221.068 219C228.667 214.592 236.36 210.352 243.801 206.155C251.219 219.695 258.134 232.835 265.526 245.699C278.793 268.778 296.315 288.204 317.299 304.521C324.747 310.312 324.779 310.551 320.298 318.904ZM175.064 39.5709C198.529 19.0239 225.895 10.9399 256.617 15.7569C281.222 19.6129 301.481 31.7239 316.868 51.3819C319.232 54.4029 320.703 58.8079 320.94 62.6749C321.527 72.1629 321.218 81.7139 321.123 91.2379C321.093 94.4379 320.657 97.3689 316.745 98.7199C308.592 101.536 301.032 105.189 294.012 109.598C292.41 96.9889 281.652 87.2379 268.607 87.2379C259.122 87.2379 250.848 92.3959 246.419 100.057C228.876 72.9509 201.735 56.5779 164.316 50.9549C168.283 46.7179 171.375 42.8029 175.064 39.5709ZM79.952 99.2889C97.435 77.7239 126.177 64.1929 154.545 64.7159C199.057 64.6309 238.532 95.2539 249.26 138.297C250.553 143.493 252.337 148.85 252.127 154.061C251.905 159.576 249.655 165.03 248.134 170.468C246.515 176.253 244.925 182.063 242.878 187.702C242.144 189.725 240.465 191.871 238.626 192.954C215.852 206.381 192.759 219.28 170.235 233.106C163.169 237.443 158.205 237.52 150.848 233.502C130.104 222.172 107.806 214.441 84.858 208.731C80.262 207.588 75.42 207.305 70.951 205.834C68.436 205.007 65.278 203.025 64.401 200.786C50.018 164.025 55.06 129.994 79.952 99.2889ZM15.691 304.669C11.239 279.037 17.52 256.72 34.956 237.454C41.965 229.708 50.15 223.425 59.878 219.869C63.685 218.478 68.655 219.228 72.857 220.125C99.619 225.832 125.141 235.024 149.335 247.903C152.716 249.704 154.301 251.647 154.083 255.578C152.185 289.766 146.267 322.831 128.901 353.083C124.842 360.154 118.371 362.393 111.597 364.137C104.923 365.857 97.943 366.386 91.097 367.436C54.167 367.694 21.616 338.777 15.691 304.669ZM234.554 447.898C221.599 474.264 201.038 490.993 171.845 496.389C166.728 497.336 161.509 497.733 156.337 498.382C134.51 498.103 115.254 490.514 99.545 476.16C79.107 457.486 68.955 433.704 71.344 405.577C71.955 398.385 74.041 391.309 75.582 384.211C76.326 380.78 78.452 379.378 82.133 379.866C97.921 381.951 113.032 379.153 127.603 373.054C129.856 372.111 131.193 372.246 132.741 374.411C150.087 398.678 174.641 411.374 203.038 417.689C207.957 418.782 213.089 418.909 218.026 419.948C219.9 420.341 222.083 421.653 223.118 423.215C227.052 429.139 230.762 435.236 234.128 441.498C235.068 443.247 235.386 446.202 234.554 447.898ZM360.978 450.124C342.163 464.109 320.729 468.775 298.03 465.004C269.977 460.346 249.646 444.284 236.56 419.031C235.065 416.147 235.537 414.861 238.627 413.302C265.777 399.58 289.752 381.625 309.66 358.528C320.333 346.146 329.617 332.782 336.105 317.647C336.412 316.932 336.812 316.258 336.844 316.196C344.849 316.196 351.965 316.051 359.069 316.282C361.274 316.353 363.96 316.829 365.552 318.161C382.579 332.39 393.126 350.743 395.189 372.651C398.175 404.4 386.995 430.787 360.978 450.124ZM497.525 381.209C485.475 398.952 468.577 409.954 448.238 415.428C435.235 418.928 421.849 418.411 408.607 415.507C404.139 414.528 404.614 411.682 405.574 408.696C409.538 396.368 409.984 383.717 408.642 371.029C406.461 350.395 397.997 332.455 384.273 316.952C383.24 315.786 382.26 314.572 381.044 313.129C387.367 310.55 393.376 308.246 399.262 305.665C412.525 299.849 424.123 291.526 433.476 280.551C439.783 273.15 445.126 264.901 450.598 256.825C452.194 254.471 453.301 253.459 456.241 254.564C483.157 264.679 501.255 283.652 509.248 310.893C516.527 335.7 512.234 359.552 497.525 381.209Z" fill="#076EFF"/>
<path d="M159.316 188.178C174.147 188.178 186.169 176.155 186.169 161.325C186.169 146.494 174.147 134.472 159.316 134.472C144.486 134.472 132.463 146.494 132.463 161.325C132.463 176.155 144.486 188.178 159.316 188.178Z" fill="#076EFF"/>
<path d="M368.808 272.805C383.638 272.805 395.66 260.782 395.66 245.952C395.66 231.122 383.638 219.1 368.808 219.1C353.978 219.1 341.956 231.123 341.956 245.953C341.956 260.783 353.978 272.805 368.808 272.805Z" fill="#076EFF"/>
<path d="M232.141 343.003C246.971 343.003 258.994 330.981 258.994 316.15C258.994 301.319 246.972 289.297 232.141 289.297C217.311 289.297 205.288 301.319 205.288 316.15C205.288 330.98 217.311 343.003 232.141 343.003Z" fill="#076EFF"/>
<path d="M84.207 329.704C99.037 329.704 111.059 317.682 111.059 302.852C111.059 288.022 99.037 276 84.207 276C69.3771 276 57.355 288.022 57.355 302.852C57.355 317.682 69.3771 329.704 84.207 329.704Z" fill="#076EFF"/>
<path d="M154.289 462.294C169.12 462.294 181.142 450.272 181.142 435.441C181.142 420.61 169.12 408.588 154.289 408.588C139.459 408.588 127.437 420.61 127.437 435.441C127.437 450.272 139.459 462.294 154.289 462.294Z" fill="#076EFF"/>
<path d="M323.735 432.954C337.185 432.954 348.088 422.051 348.088 408.601C348.088 395.151 337.185 384.247 323.735 384.247C310.285 384.247 299.382 395.151 299.382 408.601C299.382 422.051 310.285 432.954 323.735 432.954Z" fill="#076EFF"/>
<path d="M449.766 363.78C461.24 363.78 470.543 354.477 470.543 343.003C470.543 331.529 461.24 322.226 449.766 322.226C438.292 322.226 428.99 331.529 428.99 343.003C428.99 354.477 438.291 363.78 449.766 363.78Z" fill="#076EFF"/>
</svg>
