<svg width="123" height="97" viewBox="0 0 123 97" fill="none" xmlns="http://www.w3.org/2000/svg">
<g clip-path="url(#clip0_41_112)">
<path fill-rule="evenodd" clip-rule="evenodd" d="M59.07 96.03L1.15 29.77H39.16L59.07 96.03ZM61.18 0.11L45.89 25.24H77.6L61.18 0.11ZM82.18 25.07L65.17 0H96.62L82.18 25.07ZM41.65 25.31L56.55 0H24.61L41.65 25.31ZM101.71 2.98L86.67 25.24H122.88L101.71 2.98ZM22.26 2.98L38.07 25.24H0L22.26 2.98ZM44.73 29.57H78.36L62.04 95.04L44.73 29.57ZM64.91 96.04L122.14 29.77H84.13L64.91 96.04Z" fill="#076EFF"/>
</g>
<defs>
<clipPath id="clip0_41_112">
<rect width="122.88" height="96.04" fill="white"/>
</clipPath>
</defs>
</svg>
